<?xml version="1.0" standalone="no"?>
<!DOCTYPE svg PUBLIC "-//W3C//DTD SVG 1.1//EN" "http://www.w3.org/Graphics/SVG/1.1/DTD/svg11.dtd" >
<svg xmlns="http://www.w3.org/2000/svg">
<metadata>
Created by FontForge 20120731 at Tue Apr  5 14:27:04 2016
 By Ads
</metadata>
<defs>
<font id="iconfont" horiz-adv-x="1024" >
  <font-face 
    font-family="iconfont"
    font-weight="500"
    font-stretch="normal"
    units-per-em="1024"
    panose-1="2 0 6 3 0 0 0 0 0 0"
    ascent="896"
    descent="-128"
    x-height="792"
    bbox="-11 -223.5 2085 888"
    underline-thickness="50"
    underline-position="-100"
    unicode-range="U+0078-E6D2"
  />
<missing-glyph horiz-adv-x="374" 
d="M34 0v682h272v-682h-272zM68 34h204v614h-204v-614z" />
    <glyph glyph-name=".notdef" horiz-adv-x="374" 
d="M34 0v682h272v-682h-272zM68 34h204v614h-204v-614z" />
    <glyph glyph-name=".null" horiz-adv-x="0" 
 />
    <glyph glyph-name="nonmarkingreturn" horiz-adv-x="341" 
 />
    <glyph glyph-name="x" unicode="x" horiz-adv-x="1001" 
d="M281 543q-27 -1 -53 -1h-83q-18 0 -36.5 -6t-32.5 -18.5t-23 -32t-9 -45.5v-76h912v41q0 16 -0.5 30t-0.5 18q0 13 -5 29t-17 29.5t-31.5 22.5t-49.5 9h-133v-97h-438v97zM955 310v-52q0 -23 0.5 -52t0.5 -58t-10.5 -47.5t-26 -30t-33 -16t-31.5 -4.5q-14 -1 -29.5 -0.5
t-29.5 0.5h-32l-45 128h-439l-44 -128h-29h-34q-20 0 -45 1q-25 0 -41 9.5t-25.5 23t-13.5 29.5t-4 30v167h911zM163 247q-12 0 -21 -8.5t-9 -21.5t9 -21.5t21 -8.5q13 0 22 8.5t9 21.5t-9 21.5t-22 8.5zM316 123q-8 -26 -14 -48q-5 -19 -10.5 -37t-7.5 -25t-3 -15t1 -14.5
t9.5 -10.5t21.5 -4h37h67h81h80h64h36q23 0 34 12t2 38q-5 13 -9.5 30.5t-9.5 34.5q-5 19 -11 39h-368zM336 498v228q0 11 2.5 23t10 21.5t20.5 15.5t34 6h188q31 0 51.5 -14.5t20.5 -52.5v-227h-327z" />
    <glyph glyph-name="uniE600" unicode="&#xe600;" 
d="M552 667q-55 54 -129 73.5t-147.5 -0.5t-128.5 -75q-86 -87 -83 -208q3 -116 85 -197q65 -64 155.5 -78.5t169.5 25.5l80 -80l135 1v-135h135l1 -135l135 1l-1 135l-351 348q39 79 24 169.5t-80 155.5zM350.5 463.5q-31.5 -31.5 -76 -32t-76 31t-31.5 76t31 76t75.5 31.5
t76 -31t32 -75.5t-31 -76z" />
    <glyph glyph-name="uniE601" unicode="&#xe601;" 
d="M718 162q42 -18 68 -22t62 -22q31 -16 54 -44t33.5 -53t16.5 -54.5t7 -40t1 -16.5h-1h1q0 -12 -6 -21.5t-15.5 -15t-20.5 -5.5h-812q-17 0 -29.5 12t-12.5 30v0q0 6 1 16.5t7 40t16.5 54.5t33.5 53t54 44q30 14 44 17t32.5 6.5t53.5 18.5q39 16 66 28t34 16l8 4l1 83
q-4 3 -9.5 9t-17.5 32.5t-16 60.5q-9 -2 -16 5t-9.5 17t-2.5 21q0 2 -1.5 14.5t-2 20.5t0.5 17.5t5 14.5t11 3q-9 69 -7 91q5 51 50 91.5t113 43.5q77 -3 116.5 -42t45.5 -93q2 -21 -8 -91q8 2 11.5 -2.5t4.5 -14.5t0.5 -18t-2 -20.5t-1.5 -14.5q-1 -18 -7.5 -32t-20.5 -10
q-4 -35 -15 -60.5t-19 -33.5l-9 -9l1 -82l8 -4q7 -4 34 -15.5t66 -27.5z" />
    <glyph glyph-name="uniE602" unicode="&#xe602;" 
d="M512 641q-93 0 -171.5 -45.5t-124 -124t-45.5 -171.5t45.5 -171.5t124 -124t171.5 -45.5t171.5 45.5t124 124t45.5 171.5t-45.5 171.5t-124 124t-171.5 45.5zM670 202q6 -6 9.5 -14t3.5 -16t-3.5 -16t-9.5 -14t-14 -9.5t-16 -3.5q-18 0 -30 13l-98 98l-98 -98
q-12 -13 -30 -13q-8 0 -16 3.5t-14 9.5q-13 12 -13 30t13 30l98 98l-98 98q-13 12 -13 30t12.5 30.5t30.5 12.5t30 -13l98 -98l98 98q12 13 30 13t30.5 -12.5t12.5 -30.5t-13 -30l-98 -98z" />
    <glyph glyph-name="uniE603" unicode="&#xe603;" 
d="M1024 204l-192 192v288h-128v-160l-192 192l-512 -512v-32h128v-320h320v192h128v-192h320v320h128v32z" />
    <glyph glyph-name="uniE604" unicode="&#xe604;" 
d="M954 317l-185 185q-7 7 -16.5 7t-16.5 -7l-38 -37q-14 -14 -2 -30q1 -2 2 -3l82 -82h-372q-10 0 -16.5 -6.5t-6.5 -16.5v-53q0 -5 2 -9t5 -7t7 -5t9 -2h372l-82 -82q-7 -6 -7 -16t7 -16l38 -38q6 -7 16 -7t16 7l148 148l38 37q6 7 6 16.5t-6 16.5zM635 748h-500
q-29 0 -49.5 -20.5t-20.5 -49.5v-755q0 -19 9.5 -35t25.5 -25.5t35 -9.5h500q29 0 49.5 20.5t20.5 49.5v98q0 10 -7 16.5t-17 6.5h-50q-5 0 -9 -2t-7.5 -5t-5 -7t-1.5 -9v-37q0 -15 -10.5 -25t-24.5 -10h-377q-15 0 -25 10.5t-10 24.5v634q0 9 4.5 17t12.5 13t18 5h377
q9 0 17 -4.5t13 -12.5t5 -18v-38q0 -10 6.5 -16.5t16.5 -6.5h50q4 0 7.5 1t6.5 3t5 5t3.5 6.5t1.5 7.5v98q0 42 -37 61q-16 9 -33 9z" />
    <glyph glyph-name="uniE605" unicode="&#xe605;" 
d="M316 26v701h543q10 0 17 -6.5t7 -16.5v-654q0 -10 -7 -17t-17 -7h-5h-538zM859 -151q10 0 17 6.5t7 16.5v87q0 9 -7 16t-16.5 7t-16.5 -7t-7 -16v-64h-520v-46h543zM254 -105q-27 0 -46 18t-20 45v2v4q1 10 4.5 19.5t9.5 17t14 13.5t17.5 9t20.5 3h15v701h-15
q-13 0 -26 -2.5t-24 -8t-20.5 -13.5t-17 -17.5t-13.5 -20.5t-8.5 -23.5t-2.5 -25.5v-2v-1q-1 -575 0 -649v-1v-3q0 -44 30.5 -76t74.5 -35h3h19v46h-15z" />
    <glyph glyph-name="uniE606" unicode="&#xe606;" 
d="M902 359h-39q-13 0 -25.5 9.5t-16.5 22.5l-23 54q-4 8 -4.5 17.5t3 19t9.5 15.5l28 28q9 9 9 22.5t-9 23.5l-46 46q-4 3 -8.5 5.5t-9.5 3t-10 0t-10 -3t-8 -5.5l-28 -28q-10 -10 -25 -12t-27 4l-54 23q-13 4 -22 16t-9 26v39q0 7 -2.5 13t-7 10t-10.5 7t-13 3h-65
q-7 0 -13 -3t-10 -7t-7 -10t-3 -13v-39q0 -25 -23 -39q-4 -2 -8 -3l-54 -23q-12 -6 -27 -4t-25 12l-28 28q-9 9 -22.5 9t-23.5 -9l-46 -46q-3 -4 -5 -7.5t-3 -7.5t-1 -8.5t1 -8.5t3 -7.5t5 -6.5l28 -28q9 -10 11.5 -25t-3.5 -27l-23 -54q-4 -13 -16.5 -22.5t-25.5 -9.5h-39
q-9 0 -16.5 -4t-12 -11.5t-4.5 -16.5v-65q0 -14 9.5 -23.5t23.5 -9.5h39q13 0 25.5 -9t16.5 -22l23 -54q4 -8 4.5 -18t-3 -19t-9.5 -15l-28 -28q-4 -5 -6.5 -11t-2.5 -12t2.5 -12t6.5 -11l46 -46q7 -6 15 -8.5t16.5 0t14.5 8.5l28 28q10 9 25 11.5t27 -4.5l54 -22
q13 -4 22 -16.5t9 -25.5v-39q0 -14 10 -23.5t23 -9.5h65q14 0 23.5 9.5t9.5 23.5v39q0 13 9 25.5t22 16.5l54 22q12 7 27.5 4.5t24.5 -11.5l28 -28q9 -9 22.5 -9t23.5 9l46 46q9 10 9 23.5t-9 22.5l-28 28q-9 9 -11.5 24.5t3.5 27.5l23 54q2 6 6.5 12t10 10t12.5 6.5t13 2.5
h39q14 0 23.5 9.5t9.5 23.5v65q0 13 -9.5 22.5t-23.5 9.5zM674 294.5q0 -67.5 -47.5 -115t-114.5 -47.5q-45 0 -82.5 21.5t-59 59t-21.5 82t21.5 82t59 59t82.5 21.5q67 0 114.5 -47.5t47.5 -115z" />
    <glyph glyph-name="uniE607" unicode="&#xe607;" 
d="M92 348l180 -420h660l-180 420h-660zM812 408l120 -480v720h-240l-60 -120h-420v-120h600zM250 400z" />
    <glyph glyph-name="uniE608" unicode="&#xe608;" 
d="M463 405q73 0 125 49.5t52 120t-52 120t-125.5 49.5t-125.5 -49.5t-52 -120t52 -120t126 -49.5zM610 311q-35 22 -73 33.5t-77 11.5q-96 0 -177 -63t-128 -171.5t-47 -236.5q0 -13 1 -26h377q-66 80 -66 182q0 92 53 166t137 104v0zM898 89h-20q-7 0 -13.5 4.5t-8.5 11.5
l-12 28q-2 4 -2.5 9.5t1.5 10t5 7.5l14 15q5 5 5 12t-5 12l-24 24q-3 3 -7.5 4.5t-9 0t-7.5 -4.5l-14 -15q-12 -12 -27 -4l-29 12q-7 2 -11.5 8.5t-4.5 13.5v21q0 7 -5 12t-12 5h-34q-5 0 -9 -2.5t-6 -6.5t-2 -8v-21q0 -7 -5 -13.5t-11 -8.5l-29 -12q-15 -8 -27 4l-15 15
q-4 5 -11.5 5t-12.5 -5l-24 -24q-2 -2 -3 -4.5t-1.5 -5t0 -5t1.5 -5t3 -4.5l15 -15q12 -12 4 -27l-12 -28q-6 -15 -22 -16h-20q-7 0 -12 -5t-5 -12v-35q0 -4 2 -8t6 -6.5t9 -2.5h20q7 0 13.5 -4.5t8.5 -11.5l12 -28q8 -15 -4 -27l-15 -15q-3 -3 -4 -7.5t0 -9t4 -7.5l24 -24
q5 -5 12.5 -5t11.5 5l15 14q12 13 27 4l29 -11q6 -2 11 -8.5t5 -13.5v-21q0 -7 5 -12t12 -5h34q7 0 12 5t5 12v21q0 7 4.5 13.5t11.5 8.5l29 11q6 4 14 2.5t13 -6.5l14 -14q3 -3 7.5 -4.5t9 0t7.5 4.5l24 24q4 3 5 7.5t0 9t-5 7.5l-14 15q-12 12 -4 27l12 28q2 7 8.5 11.5
t13.5 4.5h20q7 0 12 5t5 12v35q0 7 -5 12t-12 5v0zM694 -31q-17 0 -33 7t-27.5 18.5t-18 27t-6.5 33.5q0 35 25 60t60 25t60 -25t25 -60.5t-25 -60.5t-60 -25zM694 -31z" />
    <glyph glyph-name="uniE609" unicode="&#xe609;" 
d="M753 716q-22 22 -53.5 22t-53.5 -22l-375 -375q-14 -14 -19.5 -33.5t0 -39t19.5 -33.5l375 -375q22 -22 53.5 -22t53.5 22q14 15 19.5 34.5t0 39t-19.5 33.5l-321 321l321 321q14 14 19.5 33.5t0 39t-19.5 34.5z" />
    <glyph glyph-name="uniE60A" unicode="&#xe60a;" 
d="M768 535q-18 12 -40 12q-4 0 -7.5 -0.5t-6.5 -1t-6.5 -1.5t-6.5 -2l-182 -70q-1 -1 -2.5 -2t-3.5 -2t-3 -2l-4 2q-3 3 -5 4l-182 70q-13 5 -27 5q-22 0 -40 -12q-5 -3 -9.5 -7t-8 -8.5t-6.5 -9.5t-4.5 -10.5t-2.5 -11t-1 -11.5v-317q0 -21 12.5 -39t32.5 -26l182 -70
q6 -3 13 -4t14 -1q9 0 18 2.5t18 7.5q8 -5 17.5 -7.5t18.5 -2.5q7 0 14 1t13 4l181 70q14 5 24.5 15t16 23t5.5 27v317q0 37 -32 58zM474 90l-182 70v317l182 -71v-316zM728 160l-182 -70v316l182 71v-317zM512 747q-73 0 -140.5 -22.5t-122.5 -63.5t-96 -96t-63.5 -122.5
t-22.5 -140.5q0 -91 35 -173t95 -142t142 -95t173 -35t173 35t142 95t95 142t35 173t-35 173.5t-95 142t-142 94.5t-173 35zM512 -81q-104 0 -192 51.5t-139.5 139.5t-51.5 192q0 78 30.5 149t81.5 122t122 81.5t149 30.5q104 0 192 -51.5t139.5 -139.5t51.5 -192
q0 -151 -103 -261q-101 -109 -248 -121q-17 -1 -32 -1z" />
    <glyph glyph-name="uniE60B" unicode="&#xe60b;" 
d="M780 114q-46 4 -80 14.5t-50.5 22t-26.5 24.5t-12 19t-2 8v73q26 10 48.5 32.5t35.5 46t22.5 47t13 37t3.5 14.5q0 12 -1.5 21t-4 15t-5.5 10.5t-6 6.5t-5 3l-4 2h-1v91q1 40 -6.5 67t-18 37.5t-25.5 13.5t-22 2t-14 -3h-1l-51 39q-10 8 -25 10t-30 -1t-28.5 -7t-21.5 -7
l-8 -4h1h-5q-76 -2 -107 -59l-4 -8l1 -168q-20 0 -30 -16.5t-10 -32.5v-16q0 -21 13 -46t31.5 -46t36.5 -39.5t31 -29.5l13 -10q1 -21 0 -38t-4.5 -31.5t-8.5 -26.5t-10 -20.5t-9 -14.5t-7 -9l-3 -3h-9q-7 0 -26.5 -2.5t-40 -5.5t-49 -9t-55.5 -15q-1 0 -3.5 -0.5t-3.5 -1.5
q-76 -26 -111 -104l-5 -15v-86l391 -2l47 -85l43 87h383v67q1 28 -16 53.5t-41.5 42.5t-48.5 30.5t-41 19.5zM566 -91h-92l-38 90l30 175h95l38 -180z" />
    <glyph glyph-name="uniE60C" unicode="&#xe60c;" 
d="M512 -147q-73 0 -141 22.5t-123 63.5t-96 96t-64 123.5t-23 141.5q0 91 35.5 174t95.5 143t142.5 95t173.5 35t173.5 -35t142.5 -95t95 -143t35 -174t-35 -174t-95 -143t-142.5 -95t-173.5 -35zM512 684q-52 0 -101.5 -14t-91.5 -38.5t-77.5 -60t-60 -77.5t-38.5 -92
t-14 -102q0 -104 51.5 -192.5t139.5 -140t192 -51.5t192 51.5t139.5 140t51.5 192.5t-51.5 192.5t-139.5 140t-192 51.5zM640 364q-27 0 -45.5 18.5t-18.5 45t18.5 45.5t45 19t45 -19t18.5 -45q0 -8 -1.5 -15t-4.5 -13.5t-7.5 -12t-10 -9.5t-12 -7.5t-13.5 -5t-14 -1.5z
M384 364q-10 0 -19.5 3t-17.5 9t-14 14t-9 17.5t-3 20.5q0 26 18.5 45t45 19t45 -19t18.5 -45q0 -18 -8.5 -32.5t-23 -23t-32.5 -8.5zM384 236q0 -27 37 -72.5t63 -45.5h56q26 0 63 45.5t37 72.5h61q3 -7 2 -32q0 -40 -57 -100t-96 -60h-76q-39 0 -96 60t-57 100
q0 4 -0.5 8.5t-1 8t-0.5 8t1 7.5h64z" />
    <glyph glyph-name="uniE60D" unicode="&#xe60d;" 
d="M437 363h150v-75h-150v75zM924 663h-37v-150h-225v150h-300v-150h-225v150h-37q-16 0 -27 -11t-11 -26v-750q0 -16 11 -27t27 -11h824q16 0 27 11t11 27v750q0 15 -11 26t-27 11zM887 -87h-750v525h750v-525zM437 63h150v-75h-150v75zM737 738h75v-150h-75v150zM212 63
h150v-75h-150v75zM212 738h75v-150h-75v150zM662 363h150v-75h-150v75zM437 213h150v-75h-150v75zM212 213h150v-75h-150v75zM662 213h150v-75h-150v75zM662 63h150v-75h-150v75zM212 363h150v-75h-150v75z" />
    <glyph glyph-name="uniE60E" unicode="&#xe60e;" 
d="M933 630h-226l-97 97q-3 3 -6 4.5t-6 2.5t-7 1h-158q-11 0 -18 -8l-98 -97h-226q-11 0 -18.5 -8t-7.5 -19t7.5 -18.5t18.5 -7.5h237q11 0 19 8l97 97h136l98 -97q7 -8 18 -8h237q11 0 18.5 7.5t7.5 18.5t-7.5 19t-18.5 8zM828 472q-11 0 -18.5 -8t-7.5 -19v-499
q0 -15 -7.5 -27t-19.5 -19t-26 -7h-474q-10 0 -20 4t-17 11.5t-11 17t-4 20.5v499q0 11 -8 19t-18 8q-6 0 -11 -2t-8.5 -5.5t-5.5 -8.5t-2 -11v-499q0 -44 31 -75t74 -31h474q43 0 74 31t31 75v499q0 11 -7.5 19t-18.5 8zM433 25v420q0 11 -7.5 19t-18.5 8q-4 0 -8 -1.5
t-7.5 -4t-6 -5.5t-3.5 -7t-1 -9v-420q0 -11 7.5 -19t18.5 -8t18.5 8t7.5 19zM644 25v420q0 11 -8 19t-19 8t-18.5 -8t-7.5 -19v-420q0 -11 7.5 -19t18.5 -8t19 8t8 19z" />
    <glyph glyph-name="uniE60F" unicode="&#xe60f;" 
d="M176 544l336 -367l340 372q19 19 44 19q8 0 15 -1.5t13.5 -5t12 -8.5t10 -11t7.5 -13t5 -15t2 -16q0 -28 -18 -48l-385 -421q-3 -4 -7 -7.5t-9 -6t-9.5 -4t-10 -2.5t-10.5 -1v0q-27 0 -46 21l-385 421q-4 5 -7 10.5t-5.5 11.5t-4 12.5t-1.5 13.5q0 29 19 49.5t46 20.5
q14 0 26.5 -6.5t21.5 -17.5z" />
    <glyph glyph-name="uniE610" unicode="&#xe610;" 
d="M785 -192h-618q-43 0 -73 30t-30 73v687q0 43 30 73t73 30h481q15 0 24 -10.5t9 -23.5t-9 -23.5t-24 -10.5h-481q-9 0 -17 -5t-12.5 -13t-4.5 -17v-687q0 -14 10 -24t24 -10h618q14 0 24.5 10t10.5 24v550q0 26 26 32t38 -15q4 -8 4 -17v-550q0 -43 -30 -73t-73 -30v0z
M559 367q-21 25 0 50l341 341q4 4 9 6.5t10.5 3t10.5 0t10 -3t9 -6.5q18 -19 6 -42l-6 -7l-341 -342q-4 -3 -9 -5.5t-10.5 -3.5t-10.5 0t-10 3.5t-9 5.5v0zM442 358h-206q-21 0 -29.5 17t0 34.5t29.5 17.5h206q21 0 29.5 -17.5t0 -34.5t-29.5 -17zM648 152h-412
q-9 0 -16.5 3.5t-11 9.5t-5 13.5t0 15t5 13.5t11 9.5t16.5 3.5h412q21 0 29.5 -17t0 -34t-29.5 -17z" />
    <glyph glyph-name="uniE611" unicode="&#xe611;" 
d="M742 325h-465q-13 0 -23 -9.5t-10 -23.5t10 -23.5t23 -9.5h465q9 0 16.5 4.5t12 12t4.5 16.5q0 14 -9.5 23.5t-23.5 9.5zM858 757h-697q-48 0 -82 -34t-34 -82v-698q0 -48 34 -82t82 -34h697q48 0 82 34t34 82v698q0 48 -34 82t-82 34zM908 -68q0 -16 -11.5 -27.5
t-27.5 -11.5h-719q-8 0 -15 3t-12.5 8.5t-8.5 12.5t-3 15v720q0 8 3 15t8.5 12t12.5 8.5t15 3.5h719q16 0 27.5 -11.5t11.5 -27.5v-720zM742 126h-465q-6 0 -12.5 -3t-11 -7t-7 -10.5t-2.5 -12.5q0 -14 10 -24t23 -10h465q14 0 23.5 10t9.5 23.5t-9.5 23.5t-23.5 10z
M742 525h-465q-13 0 -23 -10t-10 -24t10 -23.5t23 -9.5h465q9 0 16.5 4.5t12 12t4.5 16.5q0 14 -9.5 24t-23.5 10z" />
    <glyph glyph-name="uniE612" unicode="&#xe612;" 
d="M345 457q-20 0 -37 -10t-27 -27t-10 -37q0 -12 3.5 -23t10.5 -20t16 -16t20.5 -10.5t23.5 -3.5q30 0 51.5 21.5t21.5 51.5q0 9 -2 17t-5.5 15.5t-8.5 14t-11.5 11.5t-13.5 8.5t-15.5 5.5t-16.5 2zM345 346q-16 0 -27.5 11.5t-11.5 26.5q0 7 2 12.5t5.5 10.5t8.5 8.5
t11 5.5t12 2q10 0 19 -5t14 -14t5 -20q0 -15 -11 -26.5t-27 -11.5zM622 347h127v36h-127v-36zM513 87q-23 0 -45 8t-39 24l-23 -20q47 -48 111 -48q43 0 80 23.5t58.5 62t21.5 82.5h-33q-3 -30 -15 -55.5t-30 -42t-40.5 -25.5t-45.5 -9zM511 733q-90 0 -172 -35
t-141.5 -94.5t-94.5 -141.5t-35 -172t35 -172t94.5 -141.5t141.5 -94.5t172 -35t172 35t141.5 94.5t94.5 141.5t35 172q0 37 -6 72.5t-16.5 68t-26.5 63.5t-36 58t-44.5 51.5t-52 44.5t-58 36t-63.5 27t-68.5 16.5t-71.5 5.5zM512 -113q-109 0 -202 54t-146.5 146.5
t-53.5 202t53.5 202t146.5 146.5t202 54q82 0 156.5 -32t128 -86t85.5 -128.5t32 -156.5q0 -109 -54 -201.5t-146.5 -146.5t-201.5 -54z" />
    <glyph glyph-name="uniE613" unicode="&#xe613;" 
d="M907 -45h-791q-35 0 -59.5 26t-24.5 63v512q0 18 7 35t18 29t26.5 19t32.5 7h791q35 0 59.5 -26.5t24.5 -63.5v-512q0 -37 -24.5 -63t-59.5 -26zM116 583q-8 0 -14 -8t-6 -19v-512q0 -10 6 -18t14 -8h791q6 0 10.5 3.5t7.5 9.5t3 13v512q0 11 -6 19t-15 8h-791zM512 269
h-5q-2 0 -5 1l-4 2q-3 1 -5 2l-412 289q-11 8 -13 21t5.5 23.5t20.5 13t23 -5.5l413 -289q11 -8 13 -20.5t-5 -23.5q-4 -4 -8 -7t-8.5 -4.5t-9.5 -1.5zM512 269q-4 0 -7.5 0.5t-7 2.5t-6.5 4.5t-5 5.5q-8 11 -5.5 23.5t12.5 20.5l410 287q11 7 24 5t20 -13q5 -7 6 -15
t-2.5 -16t-10.5 -13l-410 -287q-8 -5 -18 -5zM99 -22q-13 0 -22 9q-4 4 -6.5 8.5t-3 9.5t0 9.5t3 9t6.5 8.5l331 338q9 9 22.5 9t22.5 -9q5 -5 7 -11t2 -12t-2 -12t-7 -10l-331 -338q-10 -9 -23 -9zM930 -28q-13 0 -22 9l-332 338q-6 6 -8 14t0 16.5t8 14.5t14.5 8t16.5 0
t14 -8l332 -338q9 -9 9 -22t-9 -23q-5 -4 -11 -6.5t-12 -2.5z" />
    <glyph glyph-name="uniE614" unicode="&#xe614;" 
d="M947 131q0 -110 -78 -188t-188 -78q-62 0 -116.5 26.5t-91.5 72.5l-3 4q-3 2 -5 3q0 1 -49 1h-98l-49 -1h-192v227v537h764v-391q49 -37 77.5 -93t28.5 -120zM680.5 348q-89.5 0 -153 -63.5t-63.5 -153.5q0 -44 17.5 -84t46.5 -69t69 -46t84 -17q89 0 152.5 63.5
t63.5 153t-63.5 153t-153 63.5zM785 681h-652l-4 -655q132 3 204 3l31 -4h68q1 0 7 -5q-25 53 -25 111q0 4 0.5 8t0.5 7v7l-1 -4l-235 2v71l251 -2q14 39 39 72l-19 -19l-271 -3v71l342 3l-2 -1q43 33 95 46h-435v71h555v-68q14 -3 27 -7t26 -10zM530 126l47 47l66 -65
l141 141l47 -47l-188 -188z" />
    <glyph glyph-name="uniE615" unicode="&#xe615;" 
d="M461 761h205v-103h-205v103zM640 454q115 0 198.5 -83.5t83.5 -198.5q0 -117 -86 -200q-83 -81 -196 -82q-115 0 -198.5 83.5t-83.5 198.5t83.5 198.5t198.5 83.5zM640 556q-158 0 -271 -112t-113 -272t113 -272t271 -112t271 112t113 272q0 161 -111.5 272.5
t-272.5 111.5zM640 239q-20 0 -38 -11t-28.5 -28.5t-10.5 -37.5q0 -31 23 -54t54 -23q10 0 20 3t18.5 8t15.5 12t12 15.5t8 18.5t3 20q0 33 -22.5 55t-54.5 22zM640 146q-12 0 -19 7t-7 19v205q0 7 3.5 13t9 9t13.5 3q12 0 19 -7t7 -18v-205q0 -5 -1.5 -9t-3.5 -7t-5 -5
t-7 -3.5t-9 -1.5zM819 121h-153q-6 0 -11 2t-8 5t-5 8t-2 10q0 12 7 19t19 7h153q8 0 13.5 -3t9 -9t3.5 -14q0 -11 -7 -18t-19 -7zM461 812h-51q-21 0 -36.5 -14.5t-15.5 -36.5v-154q0 -23 14.5 -37t37.5 -14h51q23 0 37 14t14 37v154q0 23 -14 37t-37 14zM461 607h-51v154
h51v-154zM256 761q0 15 -6.5 26.5t-18 18t-26.5 6.5h-51q-23 0 -37.5 -14t-14.5 -37v-154q0 -23 14.5 -37t37.5 -14h51q23 0 37 14t14 37v154zM205 607h-51v154h51v-154zM768 761q0 15 -6.5 26.5t-18 18t-26.5 6.5h-51q-16 0 -27.5 -6.5t-18 -18t-6.5 -26.5v-154
q0 -9 2.5 -17t7 -14t11 -10.5t14 -7t17.5 -2.5h51q11 0 20.5 3.5t16.5 10.5t10.5 16.5t3.5 20.5v154zM717 607h-51v154h51v-154zM230 95q-15 0 -29 6.5t-24.5 17t-16.5 24.5t-6 29q0 31 23 54t53.5 23t53.5 -23t23 -54q0 -12 -4 -23.5t-11 -21t-16.5 -17t-21.5 -11.5t-24 -4
zM230 198q-7 0 -13 -3.5t-9 -9t-3 -13.5q0 -12 7 -19t18.5 -7t18.5 7t7 19t-7 19t-19 7zM230 351q-30 0 -53 23t-23 54t23 54t53.5 23t53.5 -23t23 -54q0 -20 -10.5 -38t-28 -28.5t-38.5 -10.5zM230 454q-5 0 -10 -2t-8 -5.5t-5 -8t-2 -10.5q0 -12 7 -19t18.5 -7t18.5 7
t7 19q0 8 -3 13.5t-9 9t-14 3.5zM205 761h205v-103h-205v103zM819 423l103 -77v312q0 43 -30.5 73t-72.5 30h-102v-103h102v-235zM348 -7h-246v665h52v103h-52q-20 0 -39 -8t-33 -22t-22 -33t-8 -40v-665q0 -28 14 -51.5t37.5 -37.5t50.5 -14h338z" />
    <glyph glyph-name="uniE616" unicode="&#xe616;" 
d="M832 684q29 0 46.5 -17.5t17.5 -46.5v-640q0 -29 -17.5 -46.5t-46.5 -17.5h-640q-29 0 -46.5 17.5t-17.5 46.5v640q0 29 17.5 46.5t46.5 17.5h640zM832 748h-640q-53 0 -90.5 -37.5t-37.5 -90.5v-640q0 -53 37.5 -90.5t90.5 -37.5h640q53 0 90.5 37.5t37.5 90.5v640
q0 53 -37.5 90.5t-90.5 37.5z" />
    <glyph glyph-name="uniE617" unicode="&#xe617;" 
d="M464 718l8 -8l-8 -17q12 -12 24 -8q-2 -2 -5 -4.5t-5 -4.5l-4 -4l-4 -4l-2 -4q-2 -2 -3 -4t-1 -3q-4 -13 16 -13q-217 -127 -213 -270q0 -25 54 -12l4 4q36 10 56.5 24.5t25.5 32.5q-5 0 -5 8q-12 37 5 49q53 29 73 9q13 -47 4.5 -67.5t-36.5 -14.5q-58 -78 -132 -131
l33 8q-12 -14 -30.5 -24.5t-43.5 -16.5q-8 4 -12 16q-4 4 -7 8.5t-5 8.5q-4 4 -16 24q-37 49 -33 74q-4 61 73 164q-82 -29 -98 -25q0 4 -8 13q-4 8 0 12q53 127 295 180zM767 669h33q24 -4 38.5 -16.5t18.5 -32.5v-90q-8 -136 -139 -238q-21 -12 -49 -24q-33 -17 -49 -25
q0 12 8 29q4 4 8 12t4 29q1 5 3 10t4.5 9.5t4.5 8.5l-8 8q27 -12 52 -7t46.5 27.5t40.5 61.5q54 127 0 172q-20 13 -86 0h-20l-8 -8q2 -20 -2 -38.5t-15 -35.5q-12 -19 -41 -57q-2 -4 -5 -8l-5 -8q-2 -3 -6 -8q-78 -123 -197 -197q-25 -14 -45 -28t-34.5 -27.5t-23 -26
t-11.5 -25.5q-25 -86 32 -147q-24 123 41 172q9 6 20.5 11.5t25.5 11t30.5 10.5t35.5 10t40 10q4 0 12 4q32 9 59.5 14t51.5 8t45 3h33q110 -12 123 -123q-5 -5 -9 -12q0 -8 -8 -37q-33 -94 -147 -164q-78 -49 -246 -49q-66 29 0 90q4 4 12 4q10 2 18 3.5t15 4t12 4.5
q-4 17 -41 17h-7q-3 0 -5.5 0.5t-5 0.5t-4.5 0.5t-4 1.5l-3 2q-1 0 -2 1t-1 2q-5 20 20 49q25 33 21 58q-14 -4 -37 -5q-90 -4 -86 -53q0 -12 4 -29q8 -12 12 -20q0 -12 4 -33q4 -41 12 -57q-90 41 -122 147q-7 34 -4 63t16 52t37 41q4 3 10.5 7t16 9.5t22.5 12.5
q10 6 18.5 11t14.5 9q16 8 24 21q4 8 8 12q2 2 4 3t5 1q4 0 8 4q16 8 45 37l12 12q8 8 19.5 23.5t25.5 38.5q4 6 9 13t12 15q57 82 49 140q-37 4 -66 -33q-45 12 8 82q21 12 78 16q24 4 45 8q4 0 12.5 2t20.5 7q53 16 82 16zM570 -52q34 6 90 16q15 6 28 12.5t24.5 14t21 16
t17.5 18.5t14 21t10.5 23.5t7.5 26.5q-8 40 -49 49q-41 -4 -78 -13q-7 -1 -14 -1.5t-14 -0.5l-12 -2h-13h-8q-29 4 -25 -24q0 -17 29 -25q33 -8 37 -24q-4 -7 -9.5 -14t-11.5 -15q-36 -49 -61 -70q4 -8 16 -8z" />
    <glyph glyph-name="uniE618" unicode="&#xe618;" 
d="M845 749h-667q-23 0 -44.5 -9t-36.5 -24.5t-24.5 -36.5t-9.5 -45v-666q0 -31 15.5 -57.5t42 -42t57.5 -15.5h667q47 0 80.5 33.5t33.5 81.5v666q0 48 -33.5 81.5t-80.5 33.5zM823 420l-354 -355q-7 -6 -16.5 -6t-15.5 6l-7 7h-1l-7 8l-34 34v0l-153 155q-7 7 -7 16t7 16
l48 48q4 5 10 6.5t12 0t10 -6.5l138 -139l290 290q6 7 15.5 7t16.5 -7l48 -48q7 -7 7 -16t-7 -16z" />
    <glyph glyph-name="uniE619" unicode="&#xe619;" 
d="M325 -50zM882 -50zM236 -65zM960 -65zM64 23zM958 23zM81 -66zM1023 -66zM34 -40zM284 139q0 27 24 50l111 112l-111 111q-8 7 -13 15.5t-8 17t-3 17.5v3q0 5 0.5 7.5t1 7t2.5 8.5q6 16 14 23q9 8 23 13q7 4 22 4h3q6 0 12.5 -1.5t13.5 -4.5q3 -1 5.5 -2.5t4.5 -3
t3.5 -2.5t3.5 -3l3 -3l4 -4l112 -111l110 111q5 5 9.5 8.5t9.5 6.5t10 5t11 3t11 1h4q27 0 45 -17q10 -10 13 -23q4 -12 4 -23v-3q0 -12 -6 -26q-6 -13 -17 -24l-112 -111l112 -112q11 -12 17 -24.5t6 -25.5v-3q0 -8 -1 -13.5t-4 -10.5q0 -2 -12 -22q-16 -17 -45 -17h-4
q-27 0 -51 24l-110 111l-112 -111q-6 -6 -12 -10.5t-12 -7.5t-12.5 -4.5t-13.5 -1.5h-3q-15 0 -22 4q-17 7 -23 13q-10 10 -14 22q-2 6 -3 12t-1 12v3zM63 301q0 -187 131 -318t318 -131q94 0 172 32t145 99t99 145t32 173q0 186 -131 317t-317.5 131t-317.5 -131t-131 -317
zM999 -40z" />
    <glyph glyph-name="uniE61A" unicode="&#xe61a;" 
d="M598 300l343 -343q18 -18 18 -43t-18 -43q-4 -4 -9.5 -7.5t-11 -5.5t-11 -3.5t-11.5 -1.5t-11.5 1.5t-11 3.5t-10.5 5.5t-10 7.5l-343 343l-343 -343q-9 -9 -20.5 -13.5t-23 -4.5t-22.5 4.5t-20 13.5q-18 18 -18 43t18 43l343 343l-343 343q-18 18 -18 43t18 43
q12 12 27.5 16t31 0t27.5 -16l343 -343l343 343q9 9 20.5 13.5t23 4.5t22.5 -4.5t20 -13.5q18 -18 18 -43t-18 -43z" />
    <glyph glyph-name="uniE61B" unicode="&#xe61b;" 
d="M920 -30l-317 317l317 317l-90 90l-317 -317l-317 317l-90 -90l317 -317l-317 -317l90 -90l317 317l317 -317z" />
    <glyph glyph-name="uniE61C" unicode="&#xe61c;" 
d="M949 -97l-270 272q80 96 80 222q0 95 -46.5 175t-126.5 126.5t-174 46.5q-57 0 -110 -17.5t-95.5 -50t-74.5 -75t-50 -95.5t-18 -110q0 -94 46.5 -174t127 -126.5t174.5 -46.5q130 0 228 85l269 -271q9 -9 20.5 -9t19.5 9q5 5 7 12t0 14.5t-7 12.5zM412 105
q-121 0 -206.5 85.5t-85.5 206.5t85.5 206.5t206.5 85.5t206.5 -85.5t85.5 -206.5q0 -123 -88 -209q-86 -83 -204 -83z" />
    <glyph glyph-name="uniE61D" unicode="&#xe61d;" 
d="M926 -37q17 29 17 55.5t-15.5 49t-46.5 46.5q-29 22 -53 35.5t-49.5 21.5t-47.5 1.5t-40 -26.5l-3 -2q-1 -2 -6 -5t-11 -4.5t-16 -2t-21.5 1.5t-28 8.5t-34.5 17t-41 28.5t-48 42q-51 49 -80.5 90.5t-35.5 67t-4.5 44t8.5 25.5l7 7q17 18 24.5 36t8 31.5t-9.5 34
t-18.5 33.5t-28.5 38q-4 7 -6 10q-28 37 -54.5 54t-59 12.5t-69.5 -34.5q-42 -33 -49 -87.5t12.5 -110.5t56 -117t73.5 -107.5t73 -83.5l47 -47q29 -29 99 -89t115 -84l54 -31q30 -15 59.5 -25t59 -14t57 0.5t49.5 17.5l21 17q20 18 35 45z" />
    <glyph glyph-name="uniE61E" unicode="&#xe61e;" 
d="M890 394h-61v211h-211v61h272v-272zM421 -90q-78 0 -144 38.5t-104.5 104.5t-38.5 144q0 119 84 203.5t203 84.5q47 0 91 -14.5t79 -41.5t62 -62t41.5 -79t14.5 -91q0 -119 -84.5 -203t-203.5 -84zM421 424q-61 0 -113.5 -30.5t-82.5 -82.5t-30 -113.5t30 -114
t82.5 -82.5t114 -30t113.5 30t82.5 82.5t30.5 113.5q0 102 -76 169q-65 58 -151 58zM611 357q-13 0 -22 8q-8 9 -8 21.5t8 21.5l249 249q9 9 21.5 9t21.5 -9q3 -3 5 -6.5t3 -7t1 -7.5t-1 -8t-3 -7.5t-5 -6.5l-249 -249q-2 -2 -4.5 -3.5t-5.5 -2.5t-5.5 -1.5t-5.5 -0.5z" />
    <glyph glyph-name="uniE61F" unicode="&#xe61f;" 
d="M710 264q82 82 82 198t-82 197.5t-198 81.5t-198 -81.5t-82 -197.5t82 -198q70 -69 169 -80v-129h-138v-59h137v-137h60v137h137v59h-137v129q47 5 90 25.5t78 54.5zM356 306q-43 42 -58 99t0 113.5t58 99.5q64 64 156 64t156.5 -64.5t64.5 -156t-65 -155.5
q-25 -25 -57 -41t-65.5 -21t-67 0t-65.5 21t-57 41z" />
    <glyph glyph-name="uniE620" unicode="&#xe620;" 
d="M128 -44v640h640v-64h128v160q0 13 -9.5 22.5t-22.5 9.5h-832q-13 0 -22.5 -9.5t-9.5 -22.5v-832q0 -13 9.5 -22.5t22.5 -9.5h288v128h-192zM1014 -116l-46 -46q-10 -10 -23.5 -10t-22.5 10l-186 185l-186 -185q-6 -7 -14.5 -9t-17 0t-14.5 9l-46 46q-10 10 -10 23.5
t10 22.5l185 186l-185 186q-10 9 -10 22.5t10 23.5l46 46q10 10 23.5 10t22.5 -10l186 -185l186 185q9 10 22.5 10t23.5 -10l46 -46q3 -3 5 -6t3 -6.5t1.5 -7t0 -7t-1.5 -7t-3 -7t-5 -5.5l-185 -186l185 -186q10 -9 10 -22.5t-10 -23.5z" />
    <glyph glyph-name="uniE621" unicode="&#xe621;" 
d="M496 703q32 0 36 -28q-2 -17 -11 -25t-25 -8h-269q-28 4 -25 -25v-416q-7 -182 -68 -286q-25 -36 -54 -29q-21 14 -7 54q65 118 65 304v395q-4 71 64 64h294zM324 560h111q68 3 65 -75v-219q7 -118 -129 -79q-33 11 -33 43q11 36 40 32q64 -25 57 25v190q0 22 -21 22h-61
q-10 1 -16 -2t-8.5 -10.5t-0.5 -19.5v-463q0 -5 2.5 -7t7.5 0q17 9 36.5 21.5t42.5 28.5q8 6 13 10.5t9 7.5q28 18 46 -7q15 -29 -14 -50q-64 -47 -133 -79q-75 -32 -75 54v519q-3 61 61 58zM711 409q0 36 32 40q33 -4 33 -40q10 -251 -33 -347q-39 -104 -190 -190
q-39 -22 -57 3q-11 33 25 58q129 71 162 164q39 87 28 312zM933 707q13 -2 20 -10t9 -22q-4 -33 -29 -33h-168l-22 -82h112q34 0 51 -18t17 -54v-373q0 -32 -33 -35q-32 0 -35 32v355q0 28 -26 28h-10h-154q-40 4 -36 -21v-330q0 -36 -33 -39q-32 0 -35 35v355q0 65 64 65
h47l25 82h-118q-33 4 -33 33q0 32 33 32h354zM833 58q43 -36 111 -111q-6 3 5 -8q1 -1 2 -3q18 -28 -3 -50q-25 -18 -43 7q-20 27 -47 55t-61 56v0q-3 4 -7 7q-21 22 -4 47q22 22 47 0z" />
    <glyph glyph-name="uniE622" unicode="&#xe622;" 
d="M205 683q14 36 46 33q32 -11 21 -50q-50 -153 -85 -232l-2 -4q-1 -2 -1.5 -3.5t-0.5 -2.5q4 -4 7 0q11 0 25.5 0.5t31.5 2.5q18 36 61 150q14 35 43 28q28 -14 18 -50q-75 -210 -150 -334q-1 -4 -0.5 -6.5t2.5 -3.5t5 -1q13 2 35 3.5t54 3.5q36 4 39 -28q4 -40 -32 -43
l-71 -4q-34 -3 -53.5 -5t-21.5 -2q-14 0 -24.5 1.5t-18 5t-10.5 7.5q-7 18 11 50q42 67 81 153q-59 -3 -64 -3q-46 -4 -56.5 14t6.5 57q4 7 11 21q57 125 93 242zM326 57q35 14 50 -18q7 -36 -29 -50q-67 -25 -164 -50q-6 -1 -11.5 -3t-10.5 -3t-9 -2l-8 -2l-1 -1h-2h-2
q-14 -2 -24 1l-1 1q-17 5 -23 24q-2 16 7 26.5t28 15.5q89 18 200 61zM479 698q3 32 35 35q36 -3 36 -35v-75h71q29 0 29 -32q0 -18 -7 -27t-22 -9h-71v-124h71q32 0 36 -32q-4 -36 -36 -36h-71v-146h78q10 0 16.5 -4t10.5 -12t5 -20q-3 -35 -32 -35h-81q-25 -135 -122 -253
q-32 -36 -64 -14q-14 12 -13 28t17 36q82 82 110 203h-74q-12 0 -20 4t-12 12t-4 19q0 36 36 36h78v146h-82q-12 0 -20 4t-12 12t-4 20q0 32 36 32h82v124h-64q-11 0 -18.5 4t-12 12t-5.5 20q4 32 36 32h64v75zM757 669h110q71 4 53 -75q-6 -33 -13 -67.5t-15 -70t-18 -72.5
q-7 -24 -7 -28q0 -1 2 -6t6 -13l10 -20q67 -150 67 -239q-14 -121 -153 -110q-35 0 -35 35q0 32 35 32q75 -7 79 61q0 68 -61 196q-11 25 -16 40t-5 20q0 15 10 47q9 26 16 53.5t13 57t11 60.5q7 32 -22 28h-53q-22 0 -22 -21v-684q0 -9 -2 -16t-6.5 -11.5t-11 -7.5
t-15.5 -4q-36 4 -36 39v698q-7 82 79 78z" />
    <glyph glyph-name="uniE623" unicode="&#xe623;" 
d="M223 720q11 36 40 33q32 -11 25 -47l-22 -83h130q44 0 47 -33q-3 -36 -47 -36h-148l-50 -199q-2 -9 1.5 -13.5t12.5 -4.5h61v119q0 36 37 40q16 -2 24 -12t8 -28v-119h65q18 0 28 -8t12 -25q4 -32 -33 -36h-72v-108q58 14 91 29q32 7 43 -18q7 -33 -22 -47
q-54 -22 -112 -37v-195q0 -29 -32 -32q-37 3 -37 32v174q-83 -26 -148 -33q-36 -3 -43 26q-4 36 29 43h1h2l1 1h1h2l1 1h1h2h1l1 1h2h1h2l1 1h1h2h1l1 1h2h1l1 1h2h1h1l2 1h1h1h2l1 1h1h2h1l1 1h2h1l1 1h2h1h1l2 1h1h1h1l2 1h1h1l2 1h1h1h2l1 1h1h1h2l1 1h1h1l2 1h1h1h2l1 1
h1h1h2l1 1h1h1l2 1h1h1h1l2 1h1h1h1l1 1h2h1l1 1h1h1h2l1 1h1h1h1l2 1h1h1l1 1h1h2h1l1 1h1h1h1l2 1h1h1l1 1h1h1h1l2 1h1h1l1 1h1h1h1l1 1h1h1h2l1 1h1h1l1 1h1h1h1l1 1h1h1l1 1h1h1h1l1 1h1v130h-108q-69 -7 -43 76l57 210h-61q-33 3 -33 36q4 33 37 33h76zM649 717
q11 39 44 32q36 -11 29 -51l-22 -86h174q16 -2 24 -11t8 -25q-1 -11 -5.5 -18.5t-12 -11t-18.5 -3.5h-184l-22 -105h253q32 0 36 -32q-4 -37 -36 -37h-268l-18 -83q-10 -32 22 -29h181q90 -3 50 -90q-12 -28 -30.5 -56t-43 -56.5t-56.5 -57.5q20 -7 47.5 -20.5t61.5 -33.5
q39 -25 25 -58q-7 -11 -16.5 -15.5t-20.5 -2.5t-24 11q-105 69 -322 148q-36 18 -25 54q14 29 54 15q61 -22 148 -62q80 65 123 138q2 3 2 6t-1.5 5.5t-4 4t-7.5 2.5h-192q-47 0 -57 14q-11 11 3 54l26 112h-134q-9 0 -15 4t-9.5 11t-4.5 18q0 16 6 25t19 11h152l22 105
h-112q-17 0 -26 9t-11 27q2 16 11 24.5t26 8.5h126z" />
    <glyph glyph-name="uniE624" unicode="&#xe624;" 
d="M514 753q93 0 174.5 -35.5t142.5 -97t96.5 -143.5t35.5 -175t-35.5 -175.5t-96.5 -144t-142.5 -97t-174.5 -35.5t-175 35.5t-143 97t-96 144t-35 175.5t35 175t96 143.5t143 97t175 35.5zM796 388q18 18 19 45.5t-17.5 46t-45 18t-44.5 -19.5l-289 -289l-100 99
q-18 18 -44.5 18.5t-45 -18t-19 -43.5t17.5 -43l143 -144q18 -18 48 -17.5t48 18.5l-4 -4z" />
    <glyph glyph-name="uniE625" unicode="&#xe625;" 
d="M512 748q-91 0 -174 -35.5t-143 -95.5t-95.5 -143t-35.5 -174t35.5 -174t95.5 -143t143 -95.5t174 -35.5t174 35.5t142.5 95.5t95 143t35.5 174t-35.5 174t-95 143t-142.5 95.5t-174 35.5zM372 62v476l412 -238z" />
    <glyph glyph-name="uniE626" unicode="&#xe626;" 
d="M385 426h-129v151q0 49 19.5 91.5t54 74.5t81 50.5t101.5 18.5q49 0 94.5 -18.5t81 -50.5t56.5 -74.5t21 -91.5v-151h-124v122q0 65 -36 100t-97 35q-55 0 -89 -35t-34 -100v-122zM826 365q28 0 48 -20t20 -48v-317q0 -27 -10 -51t-27 -42t-40 -28.5t-50 -10.5h-517
q-28 0 -50.5 10.5t-38 27.5t-24.5 39.5t-9 47.5v324q0 28 19.5 48t47.5 20h61h129h256h124h61z" />
    <glyph glyph-name="uniE627" unicode="&#xe627;" 
d="M768 812q49 0 94.5 -18.5t80.5 -50.5t56 -74.5t21 -91.5v-150h-123v122q0 64 -36 99.5t-97 35.5q-55 0 -88.5 -35.5t-33.5 -99.5v-124h-128v152q0 49 19.5 91.5t53.5 74.5t80 50.5t101 18.5zM766 118v-87v-48q0 -27 -9.5 -51.5t-26.5 -42t-39.5 -27.5t-50.5 -10h-514
q-28 0 -50.5 9.5t-38.5 26.5t-24.5 39.5t-8.5 47.5v323q0 29 19.5 48.5t46.5 19.5h629q29 0 48 -19.5t19 -48.5v-180z" />
    <glyph glyph-name="uniE628" unicode="&#xe628;" 
d="M843 -13q0 -9 -6 -15t-15 -6h-690q-6 0 -10.5 3t-7.5 7.5t-3 10.5v487q0 9 6 15t15 6h203v40h-224q-16 0 -28 -11.5t-12 -28.5v-529q0 -16 12 -28t28 -12h732q11 0 20.5 5.5t14.5 14.5t5 20v183h-40v-162zM951 497l-187 187l-29 -29l140 -140h-154v-1q-118 -7 -217 -62
t-159.5 -145.5t-68.5 -197.5h40q13 146 128 250t277 114v1h154l-140 -140l29 -28l187 186l-3 3z" />
    <glyph glyph-name="uniE629" unicode="&#xe629;" 
d="M511 -144q-72 0 -140.5 22.5t-123 64t-96 96.5t-64 123t-22.5 141q0 91 35.5 173.5t95 142.5t142.5 95.5t173 35.5q46 0 90.5 -9.5t84 -26t75.5 -41t66 -54.5t54.5 -66.5t41.5 -76t26 -84t9 -89.5q0 -169 -112 -296q-109 -123 -270 -146q-33 -5 -65 -5zM511.5 735
q-117.5 0 -217 -58t-157 -157.5t-57.5 -216.5t57.5 -216.5t157 -157.5t216.5 -58q88 0 168 34.5t138 92t92 137.5t34 168q0 117 -58 216.5t-157 157.5t-216.5 58zM670 156q0 -6 -5 -11t-11 -5h-290q-7 0 -12 5t-5 11v290q0 3 1 5t2 3.5t2.5 3t3 2.5t3.5 1.5t5 0.5h290
q6 0 11 -4.5t5 -11.5v-290z" />
    <glyph glyph-name="uniE62A" unicode="&#xe62a;" 
d="M515 -150q-35 0 -69.5 5.5t-68.5 16.5q-87 28 -155 87q-33 29 -60 63t-46 73q-40 78 -48 165q-8 90 20.5 177t87.5 155q57 66 135.5 106t165.5 47q22 2 44.5 2t44.5 -2.5t44 -7.5t44 -12q98 -32 172 -98q73 -66 110 -155q2 -4 2.5 -8t0 -8t-2 -7.5t-4 -7t-6 -6t-7.5 -3.5
q-11 -5 -23 0t-17 16q-12 31 -30.5 59t-41.5 52t-50 44.5t-58 36.5t-64 27q-74 24 -150.5 18t-145.5 -41.5t-118.5 -93.5t-73.5 -132q-26 -76 -17.5 -153t41 -142.5t91.5 -116.5t134 -76q129 -42 257 7t197 166q6 11 18.5 14.5t23 -3t14 -19t-2.5 -23.5
q-38 -65 -96.5 -114.5t-129.5 -77.5q-23 -9 -47.5 -15.5t-49 -10t-49.5 -4.5h-16zM913 420h-213q-12 0 -21 9t-9 22t9 22t21 9h213q13 0 22 -9t9 -22t-9 -22t-22 -9zM926.5 420q-12.5 0 -21.5 9t-9 22v213q0 6 2.5 11.5t6.5 10t9.5 7t12.5 2.5q8 0 15 -4.5t11 -11.5t4 -15
v-213q0 -13 -9 -22t-21.5 -9z" />
    <glyph glyph-name="uniE62B" unicode="&#xe62b;" 
d="M790 -64h80q5 0 9 2t6 6t2 9v767q0 7 -5 12.5t-12 5.5h-603q-4 0 -7 -1.5t-5.5 -4t-4 -5.5t-1.5 -7v-82h541v-702zM683 565h-516q-14 0 -24 -10t-10 -24v-635q0 -14 10 -24.5t24 -10.5h516q10 0 17.5 5t12 13t4.5 17v635q0 14 -10 24t-24 10zM621 66h-391q-11 0 -18 7.5
t-7 19t7 19t18 7.5h391q5 0 10 -2t8.5 -5.5t5.5 -8.5t2 -10q0 -8 -3.5 -14t-9.5 -9.5t-13 -3.5zM621 213h-391q-11 0 -19 8t-8 19q0 7 3.5 13t10 10t13.5 4h391q7 0 13 -4t9.5 -10t3.5 -13q0 -11 -7.5 -19t-18.5 -8zM621 359h-391q-11 0 -19 8t-8 19q0 4 1.5 8t4 7.5t5.5 6
t7 3.5t9 1h391q7 0 13 -3.5t9.5 -9.5t3.5 -13q0 -11 -7.5 -19t-18.5 -8z" />
    <glyph glyph-name="uniE62C" unicode="&#xe62c;" 
d="M365 560q-44 -143 -130 -260q11 -25 18 -49q29 36 55 78v-313h42v388q11 22 21 44.5t19.5 47t18.5 49.5zM614 397h152v39h-169v121h-41v-121h-164v-39h146q-59 -150 -174 -270q17 -19 32 -37q109 119 160 265v-339h41v333q57 -157 154 -253q16 19 38 41q-115 95 -175 260
zM855 733h-686q-42 0 -72 -30t-30 -72v-686q0 -42 30 -72t72 -30h686q28 0 51.5 13.5t37 37t13.5 51.5v686q0 28 -13.5 51.5t-37 37t-51.5 13.5zM908 -20q0 -18 -7 -35t-19.5 -29.5t-29.5 -19.5t-35 -7h-612q-38 0 -64.5 26.5t-26.5 64.5v612q0 38 26.5 64.5t64.5 26.5h612
q25 0 46 -12t33 -33t12 -46v-612z" />
    <glyph glyph-name="uniE62D" unicode="&#xe62d;" 
d="M477 -206l-276 396l-113 -49l-45 93l228 96l213 -316l445 768l52 -147z" />
    <glyph glyph-name="uniE62E" unicode="&#xe62e;" 
d="M827 812h-630q-82 0 -139.5 -57.5t-57.5 -139.5v-630q0 -54 26.5 -99t72 -71.5t98.5 -26.5h630q82 0 139.5 57.5t57.5 139.5v630q0 82 -57.5 139.5t-139.5 57.5zM945 -15q0 -49 -34.5 -83.5t-83.5 -34.5h-630q-49 0 -83.5 34.5t-34.5 83.5v630q0 49 34.5 83.5t83.5 34.5
h630q24 0 46 -9.5t37.5 -25t25 -37.5t9.5 -46v-630zM826 339h-275v275q0 17 -11.5 28.5t-27.5 11.5t-28 -11.5t-12 -28.5v-275h-274q-7 0 -13 -2t-11 -5.5t-8.5 -8.5t-5.5 -11t-2 -12t2 -12t5.5 -11t8.5 -8.5t11 -5.5t13 -2h274v-275q0 -11 5.5 -20t14.5 -14.5t20 -5.5
q16 0 27.5 11.5t11.5 28.5v275h275q17 0 28.5 11.5t11.5 27.5q0 11 -5.5 20t-14.5 14t-20 5z" />
    <glyph glyph-name="uniE62F" unicode="&#xe62f;" horiz-adv-x="1000" 
d="M79 753v-873h872v873h-872zM515 3l-327 327h164v300h327v-300h163z" />
    <glyph glyph-name="uniE630" unicode="&#xe630;" 
d="M256 364h128v-320h256v320h128l-256 256z" />
    <glyph glyph-name="uniE631" unicode="&#xe631;" 
d="M768 300h-128v320h-256v-320h-128l256 -256z" />
    <glyph glyph-name="uniE632" unicode="&#xe632;" 
d="M747 357l-224 239q-4 4 -9 4q-2 0 -4.5 -1t-4.5 -3l-223 -239q-6 -6 -2.5 -13.5t11.5 -7.5h131v-307q0 -5 3.5 -8.5t8.5 -3.5h160q5 0 8.5 3.5t3.5 8.5v307h132q3 0 6 2t5 6q3 7 -2 13zM864 748h-700q-40 0 -68.5 -28.5t-28.5 -68.5v-701q0 -40 28.5 -68t68.5 -28h700
q41 0 69 28t28 68v701q0 16 -5 30.5t-13.5 26.5t-20.5 21t-27 14t-31 5zM897 -33q0 -21 -14.5 -35.5t-34.5 -14.5h-668q-20 0 -34.5 14.5t-14.5 35.5v667q0 21 14.5 35.5t34.5 14.5h668q20 0 34.5 -14.5t14.5 -35.5v-667z" />
    <glyph glyph-name="uniE633" unicode="&#xe633;" horiz-adv-x="1025" 
d="M512 812q104 0 199 -40.5t163.5 -109t109 -163.5t40.5 -199t-40.5 -199t-109 -163.5t-163.5 -109t-199 -40.5q-188 0 -332 122q-136 116 -171 292q-9 49 -9 98q0 104 40.5 199t109 163.5t163.5 109t199 40.5zM546 124q0 24 2 41.5t5 28.5q5 21 18 38q12 17 51 51
q59 53 79 89t20 79q0 37 -14 69t-43 58q-58 53 -154 53q-91 0 -146.5 -49t-66.5 -141l83 -10q11 69 45 101q18 16 39.5 24t46.5 8q54 0 90.5 -35.5t36.5 -82.5q0 -26 -12 -48q-13 -22 -55 -59t-58 -56q-22 -27 -32 -53q-13 -35 -13 -82v-10v-14h78zM555 -38v92h-92v-92h92z
M555 -38z" />
    <glyph glyph-name="uniE634" unicode="&#xe634;" 
d="M647 300l325 325q10 10 16.5 23.5t8.5 27.5t0 28t-8.5 27t-16.5 24q-18 17 -41.5 23.5t-47.5 0t-41 -23.5l-325 -325l-325 325q-17 17 -41 23.5t-47.5 0t-40.5 -23.5q-27 -27 -27 -65t27 -65l324 -325l-324 -325q-27 -27 -27 -65t26.5 -64.5t65 -26.5t64.5 26l325 325
l325 -325q27 -26 65 -26t65 26q13 14 20 31t7 34.5t-7 34.5t-20 30z" />
    <glyph glyph-name="uniE635" unicode="&#xe635;" horiz-adv-x="1000" 
d="M314 6l288 288l-292 292q-7 7 -11 17t-4 21q0 23 16 39t39 16q22 0 38 -15l329 -330q17 -16 17 -40v0q0 -1 -2 -8t-6 -17t-9 -14l-329 -330q-5 -5 -11 -8.5t-13 -5t-14 -1.5q-23 0 -39 16t-16 39q0 25 19 41z" />
    <glyph glyph-name="uniE636" unicode="&#xe636;" 
d="M919 303l-405 445l-404 -445h200v-452h400v452h209zM710 303z" />
    <glyph glyph-name="uniE637" unicode="&#xe637;" 
d="M711 296v452h-400v-452h-200l404 -445l405 445h-209zM711 296z" />
    <glyph glyph-name="uniE638" unicode="&#xe638;" 
d="M362 768h-240q-37 0 -63.5 -26.5t-26.5 -63.5v-240q0 -37 26.5 -63.5t63.5 -26.5h240q37 0 63.5 26.5t26.5 63.5v240q0 37 -26.5 63.5t-63.5 26.5zM902 768h-240q-37 0 -63.5 -26.5t-26.5 -63.5v-240q0 -37 26.5 -63.5t63.5 -26.5h240q37 0 63.5 26.5t26.5 63.5v240
q0 37 -26.5 63.5t-63.5 26.5zM362 228h-240q-37 0 -63.5 -26.5t-26.5 -63.5v-240q0 -37 26.5 -63.5t63.5 -26.5h240q37 0 63.5 26.5t26.5 63.5v240q0 37 -26.5 63.5t-63.5 26.5zM902 228h-240q-37 0 -63.5 -26.5t-26.5 -63.5v-240q0 -37 26.5 -63.5t63.5 -26.5h240
q37 0 63.5 26.5t26.5 63.5v240q0 37 -26.5 63.5t-63.5 26.5z" />
    <glyph glyph-name="uniE639" unicode="&#xe639;" 
d="M863 -84h-702q-14 0 -23.5 9.5t-9.5 23.5v702q0 14 9.5 23.5t23.5 9.5h702q14 0 23.5 -9.5t9.5 -23.5v-702q0 -7 -2.5 -13t-7 -10.5t-10.5 -7t-13 -2.5zM599 378q0 46 -32.5 78t-78.5 32q-13 0 -25.5 -2.5t-23.5 -8t-20.5 -13t-17 -17.5t-13 -20.5t-8.5 -23t-3 -25.5
q0 -27 12.5 -50.5t33.5 -38.5q-49 -19 -80 -62t-33 -96h-1v-35h2h34h203v35h-205q4 57 45.5 96.5t99.5 39.5q13 0 25.5 -2.5t24.5 -6.5t22.5 -10.5t20.5 -14.5q8 16 18 29q-21 17 -46 27q14 10 24 23.5t16 30.5t6 35zM735 216h-136v-17h136v17zM735 165h-136v-17h136v17z
M735 114h-136v-17h136v17zM488 301v0q-32 0 -54.5 22.5t-22.5 54.5q0 21 10.5 38.5t28 27.5t38.5 10q32 0 54.5 -22.5t22.5 -53.5q0 -16 -6.5 -30t-16.5 -24.5t-24.5 -16.5t-29.5 -6z" />
    <glyph glyph-name="uniE63A" unicode="&#xe63a;" 
d="M880 -103h-736q-10 0 -18 4.5t-12.5 12.5t-4.5 18v736q0 15 10 25t25 10h736q15 0 25 -10t10 -25v-736q0 -15 -10 -25t-25 -10zM882 652q0 7 -5 12t-13 5h-701q-7 0 -12.5 -5t-5.5 -12v-702q0 -7 5.5 -12t12.5 -5h701q8 0 13 5t5 12v702zM603 104h143v-18h-143v18z
M603 158h143v-18h-143v18zM603 212h143v-18h-143v18zM584 230q-20 17 -45 26t-52 9q-61 0 -104.5 -41.5t-47.5 -101.5h214v-36h-212h-36h-2v36h1q2 56 34.5 101t83.5 65q-22 16 -35 40.5t-13 53.5q0 31 16 58t42.5 42.5t58.5 15.5q48 0 82 -34t34 -82q0 -59 -48 -94
q26 -10 49 -28q-11 -14 -20 -30zM567 382q0 33 -23.5 56.5t-57 23.5t-57 -23.5t-23.5 -57t23.5 -57t57.5 -23.5v0q11 0 21 3t19 8t16.5 12.5t12.5 16.5t8 19.5t3 21.5z" />
    <glyph glyph-name="uniE63B" unicode="&#xe63b;" 
d="M726 -107v36h248v-36h-248zM584 -108h-498q-15 0 -25.5 10.5t-10.5 25.5v744q0 10 5 18t13 13t18 5h744q15 0 25.5 -10.5t10.5 -25.5v-637h-282v-143zM247 496h-35v-36h35v36zM247 319h-35v-36h35v36zM247 141h-35v-35h35v35zM708 496h-425v-36h425v36zM708 319h-425v-36
h425v36zM708 106v35h-425v-35h425z" />
    <glyph glyph-name="uniE63C" unicode="&#xe63c;" 
d="M253 110h-35v35h35v-35zM218 492h35v-35h-35v35zM253 284h-35v34h35v-34zM704 110h-417v35h417v-35zM287 492h417v-35h-417v35zM704 284h-417v34h417v-34zM964 -63v-35h-135q-5 -1 -6 -1h-728q-9 0 -17 4.5t-13 12.5t-5 18v728q0 10 5 18t13 12.5t17 4.5h728q15 0 25 -10
t10 -25v-628h-34v611q0 7 -5.5 12t-12.5 5h-694q-4 0 -8 -2.5t-6.5 -6t-2.5 -8.5v-694q0 -7 5 -12t12 -5h474v-33h135v34h243z" />
    <glyph glyph-name="uniE63D" unicode="&#xe63d;" 
d="M861 -82h-698q-14 0 -23.5 9.5t-9.5 23.5v698q0 9 4.5 16.5t12 12t16.5 4.5h698q14 0 23.5 -9.5t9.5 -23.5v-698q0 -7 -2.5 -13t-7 -10.5t-10.5 -7t-13 -2.5zM320 312h56v-135q0 -26 -15 -40l24 -24q12 13 23 22q39 30 78 55q-4 15 -8 35q-21 -16 -38.5 -29t-32.5 -23
v169h-87v-30zM367 469l-22 -21q38 -36 66 -68l26 24q-31 31 -70 65zM708 444h-248v-30h127v-251q0 -30 -29 -30h-10q-5 0 -10 0.5t-11 0.5t-11.5 0.5t-12 1t-12.5 1.5q4 -22 6 -36h71q52 0 52 53v260h88v30z" />
    <glyph glyph-name="uniE63E" unicode="&#xe63e;" 
d="M861 -82h-698q-14 0 -23.5 9.5t-9.5 23.5v698q0 9 4.5 16.5t12 12t16.5 4.5h698q9 0 16.5 -4.5t12 -12t4.5 -16.5v-698q0 -9 -4.5 -16.5t-12 -12t-16.5 -4.5zM861 632q0 3 -0.5 5t-1.5 4t-2.5 3.5t-3.5 2.5t-4 1.5t-5 0.5h-664q-7 0 -12 -5t-5 -12v-664q0 -7 5 -12t12 -5
h664q5 0 9 2t6 6t2 9v664zM620 154q0 -53 -52 -53h-71q-2 14 -6 36q9 -1 18.5 -2t17.5 -1t16 -0.5t15 -0.5q29 0 29 30v251h-127v30h248v-30h-88v-260zM345 448l22 21q10 -8 19 -16.5t18 -16.5t17 -16l16 -16l-26 -24q-28 32 -66 68zM407 173q29 20 71 52q2 -10 4 -18.5
t4 -16.5q-39 -25 -78 -55q-11 -9 -23 -22l-24 24q3 3 5.5 6.5t4 7t3 8t2 9t0.5 9.5v135h-56v30h87v-169z" />
    <glyph glyph-name="uniE63F" unicode="&#xe63f;" 
d="M858 -82h-291q-16 0 -26.5 10.5t-10.5 25.5v291q0 8 3 14.5t8 11.5t11.5 8t14.5 3h291q7 0 14 -3t11.5 -8t7.5 -11.5t3 -14.5v-291q0 -3 -0.5 -7t-2 -7t-3.5 -6t-4.5 -5.5t-5.5 -4.5t-6 -3.5t-7 -2t-7 -0.5zM858 318h-291q-16 0 -26.5 10.5t-10.5 26.5v291q0 10 5 18
t13.5 13t18.5 5h291q15 0 25.5 -10.5t10.5 -25.5v-291q0 -16 -10.5 -26.5t-25.5 -10.5zM457 -82h-291q-15 0 -25.5 10.5t-10.5 25.5v291q0 8 3 14.5t7.5 11.5t11.5 8t14 3h291q5 0 10 -1.5t9 -3.5t7.5 -5.5t5.5 -7.5t3.5 -9t1.5 -10v-291q0 -15 -11 -25.5t-26 -10.5z
M457 318h-291q-7 0 -14 3t-11.5 8t-7.5 11.5t-3 14.5v291q0 15 10.5 25.5t25.5 10.5h291q15 0 26 -10.5t11 -25.5v-291q0 -15 -11 -26t-26 -11z" />
    <glyph glyph-name="uniE640" unicode="&#xe640;" 
d="M859 -84h-292q-15 0 -26 10.5t-11 25.5v293q0 15 11 26t26 11h292q10 0 18.5 -5t13.5 -13.5t5 -18.5v-293q0 -15 -10.5 -25.5t-26.5 -10.5zM859 227q0 7 -5 12.5t-13 5.5h-256q-5 0 -9 -2.5t-6.5 -6.5t-2.5 -9v-256q0 -3 1 -6t2.5 -5t4 -4t5 -3t5.5 -1h256q8 0 13 5.5
t5 13.5v256zM859 318h-292q-6 0 -11.5 2t-10 5.5t-8 8t-5.5 10t-2 11.5v293q0 15 11 25.5t26 10.5h292q16 0 26.5 -10.5t10.5 -25.5v-293q0 -15 -10.5 -26t-26.5 -11zM859 629q0 8 -5 13.5t-13 5.5h-256q-7 0 -12.5 -5.5t-5.5 -13.5v-256q0 -2 0.5 -4.5t2 -4.5t3 -3.5
t3.5 -3t4.5 -2t4.5 -0.5h256q8 0 13 5.5t5 12.5v256zM457 -84h-293q-15 0 -25.5 10.5t-10.5 25.5v293q0 10 5 18.5t13.5 13.5t17.5 5h293q10 0 18.5 -5t13.5 -13.5t5 -18.5v-293q0 -15 -11 -25.5t-26 -10.5zM457 227q0 7 -5.5 12.5t-12.5 5.5h-256q-8 0 -13.5 -5.5
t-5.5 -12.5v-256q0 -5 2.5 -9.5t7 -7t9.5 -2.5h256q7 0 12.5 5.5t5.5 13.5v256zM457 318h-293q-15 0 -25.5 11t-10.5 26v293q0 15 10.5 25.5t25.5 10.5h293q15 0 26 -10.5t11 -25.5v-293q0 -8 -3 -14.5t-8 -11.5t-11.5 -8t-14.5 -3zM457 629q0 8 -5.5 13.5t-12.5 5.5h-256
q-8 0 -13.5 -5.5t-5.5 -13.5v-256q0 -5 2.5 -9t7 -6.5t9.5 -2.5h256q5 0 9 2.5t6.5 6.5t2.5 9v256z" />
    <glyph glyph-name="uniE641" unicode="&#xe641;" 
d="M754 305q0 -89 -62.5 -151.5t-151 -62.5t-150.5 62.5t-62 151t62 151t150.5 62.5t151 -62.5t62.5 -150.5zM600 347v52h-29v-22l-30 30l-83 -82h15v-83h45v68h45v-68h45v83h15zM526 242h30v60h-30v-60zM556 302h-30v-60h30v60zM660 560q0 -17 5 -33.5t15 -29t23 -22.5
t29 -15.5t33 -5.5q21 0 40.5 8.5t33.5 22.5t22.5 33.5t8.5 41.5q0 43 -31 74t-74.5 31t-74 -31t-30.5 -74zM154 64q0 -53 38 -91t91.5 -38t91 38t37.5 91q0 18 -4.5 34.5t-13 31t-20.5 26.5t-26 20t-30.5 12.5t-34.5 4.5q-53 0 -91 -37.5t-38 -91.5zM202 535q0 -33 24 -57
t57.5 -24t57 24t23.5 57q0 22 -11 41t-29.5 29.5t-40.5 10.5q-33 0 -57 -23.5t-24 -57.5zM684 64q0 -33 23.5 -57t57 -24t57.5 24t24 57q0 34 -24 57.5t-57.5 23.5t-57 -23.5t-23.5 -57.5v0zM684 64z" />
    <glyph glyph-name="uniE642" unicode="&#xe642;" 
d="M867 359h-36q-12 0 -23 8.5t-15 19.5l-20 50q-6 11 -4 24.5t10 22.5l26 25q8 9 8 21t-8 21l-42 42q-6 6 -13.5 8t-15 0t-13.5 -8l-25 -25q-9 -9 -22.5 -11t-24.5 4l-50 20q-11 4 -19.5 15t-8.5 24v35q0 12 -8.5 21t-20.5 9h-60q-8 0 -14.5 -4t-10.5 -11t-4 -15v-35
q0 -13 -8.5 -24t-19.5 -15l-50 -20q-7 -4 -16 -4.5t-17 2.5t-14 9l-25 25q-9 9 -21 9t-21 -9l-42 -42q-4 -4 -6 -9.5t-2 -11t2 -11.5t6 -10l25 -25q6 -6 9 -14t2.5 -17t-4.5 -16l-20 -50q-4 -11 -15 -19.5t-23 -8.5h-36q-6 0 -11.5 -2.5t-9.5 -6t-6 -9t-2 -11.5v-60
q0 -12 8.5 -20.5t20.5 -8.5h36q8 0 16 -4t14 -10.5t8 -13.5l20 -50q3 -5 4 -11.5t0 -13t-3.5 -12.5t-7.5 -10l-25 -25q-4 -4 -6 -10t-2 -11.5t2 -11t6 -9.5l42 -42q9 -9 21 -9t21 9l25 25q9 9 22.5 11t24.5 -4l50 -20q11 -4 19.5 -15t8.5 -24v-35q0 -6 2.5 -11.5t6 -9.5
t9 -6.5t11.5 -2.5h60q12 0 20.5 9t8.5 21v35q0 8 4 16t10.5 14t13.5 9l50 20q7 4 16 4.5t17 -2.5t14 -9l25 -25q9 -9 21 -9t21 9l42 42q8 9 8 21t-8 21l-26 25q-8 9 -10 22.5t4 24.5l20 50q2 7 8 13.5t14 10.5t16 4h36q12 0 20.5 8.5t8.5 20.5v60q0 12 -8.5 20.5t-20.5 8.5z
M660 300q0 -61 -43.5 -104.5t-104.5 -43.5t-104.5 43.5t-43.5 104.5t43.5 104.5t104.5 43.5t104.5 -43.5t43.5 -104.5z" />
    <glyph glyph-name="uniE643" unicode="&#xe643;" 
d="M896 300l-103 -75l52 -117l-127 -14l-14 -127l-117 52l-75 -103l-75 103l-117 -52l-14 127l-127 14l52 117l-103 75l103 75l-52 117l127 14l14 127l117 -52l75 103l75 -103l117 52l14 -127l127 -14l-52 -117zM332 320.5q6 4.5 17 4.5q9 0 15 -2t9 -6q4 -5 5 -12h18
q0 4 -0.5 7.5t-2 7t-4.5 6.5q-3 4 -7 7t-8.5 5t-10.5 2.5t-12 0.5q-11 0 -19 -2.5t-14 -7.5q-12 -10 -12 -26q0 -7 3.5 -12.5t9.5 -9.5q7 -5 22 -9l16 -4q13 -3 17 -5q6 -5 7 -12q0 -4 -2 -8t-6.5 -6.5t-9.5 -3.5t-10 -1q-3 0 -5.5 0.5t-4.5 0.5t-4 0.5t-4 1.5t-3.5 2
t-2.5 2t-2 3q-2 2 -3.5 6t-1.5 9h-19q0 -6 1.5 -11.5t4 -10t6.5 -8.5q2 -3 6 -5t8.5 -3.5t10 -2t12.5 -0.5q6 0 11.5 0.5t10 2t8 3.5t6.5 5q12 11 12 27t-11 23q-2 2 -5 3t-6.5 2t-8 2.5t-9.5 2.5l-13 3q-9 2 -13 5q-8 5 -8 12t6 11.5zM537 236q-2 0 -3.5 -0.5t-2.5 -0.5
q-4 0 -5.5 2t-1.5 5v67q0 6 -1.5 10.5t-4 8t-7.5 5.5q-3 2 -6.5 3.5t-7.5 2.5t-9 1.5t-10 0.5q-6 0 -11.5 -1t-10 -2.5t-9.5 -4.5q-7 -4 -10.5 -11.5t-3.5 -18.5h18q1 9 5 13q8 8 22 9q13 0 20 -4.5t7 -14.5q0 -5 -1 -8q-1 -1 -2 -2.5t-3 -2t-4 -1.5l-31 -3q-17 -3 -27 -11
q-5 -5 -7.5 -11t-2.5 -14q0 -15 10 -25q4 -3 8 -5.5t8.5 -3.5t10.5 -1q13 0 24 6q4 2 7 4t6 4.5t5 4.5q0 -3 1 -5.5t2 -4.5q4 -7 15 -7h4h2l7 2v14zM587 382h-19v-160h19v160zM725 300q-2 11 -8 20t-17 15q-6 3 -12 4.5t-12 1.5q-12 0 -22 -4.5t-18 -12.5q-15 -18 -15 -46
t15 -44q8 -8 17 -12t20 -4q9 0 16 2q13 3 22 11q5 5 9 13q2 3 3 5.5t1.5 4.5t0.5 5h-19q-1 -3 -2 -5.5t-2.5 -4.5t-2.5 -4q-9 -10 -24 -10q-17 0 -24 11q-4 5 -6.5 12t-2.5 16h85q0 18 -2 26zM675 324q18 0 26 -14q2 -4 3.5 -9t2.5 -11h-64q0 14 9 24t23 10zM488 240
q-3 -2 -6.5 -3t-6.5 -1.5t-7 -0.5q-8 0 -14 5t-7 13q0 6 2.5 10t7.5 6q5 3 16 5l11 1q2 0 4 0.5t3.5 1t3.5 0.5q3 1 5.5 2t4.5 2v-16q0 -18 -17 -25z" />
    <glyph glyph-name="uniE644" unicode="&#xe644;" 
d="M512 469l-118 -70h236zM628 307q-1 -1 -1.5 -3t-1.5 -5q-4 -18 -6 -25q-2 1 -4.5 1.5t-5.5 0.5v-14q6 -8 13 -17v12h28v13h-24v14h24v13h-22v10zM512 683q-104 0 -192 -51.5t-139.5 -139.5t-51.5 -192t51.5 -192t139.5 -139.5t192 -51.5t192 51.5t139.5 139.5t51.5 192
q0 151 -103 261q-101 108 -248 120q-17 2 -32 2zM748 187q0 -16 -11.5 -27.5t-27.5 -11.5h-394q-6 0 -12 2t-11 5.5t-8.5 8.5t-5.5 11t-2 12v172q0 5 1 9.5t3 8.5t4.5 7.5t6 6t7.5 4.5t8.5 3t8.5 1h35l162 96l162 -96h35q8 0 15 -3t12.5 -8.5t8.5 -13t3 -15.5v-172zM697 376
h-369q-14 0 -22 -7t-8 -21v-149q0 -9 3.5 -15.5t10.5 -9.5t16 -3h368q30 0 30 28v149q0 28 -29 28zM579 307l14 -1q0 -13 -1 -22.5t-2 -16.5l-14 2q3 16 3 38zM434 228q-1 -1 -2 -3t-2.5 -3t-2.5 -1.5t-3 -1t-3.5 -1t-4.5 -0.5h-63q-11 0 -14.5 3t-3.5 14v64h16q3 0 3 -2v-1
q0 -1 -1 -2q-1 -3 -1 -12h53v27h-75v15h93v-56h-71v-30v-2q0 -1 1 -1q1 -1 3 -1h56l4 1q1 0 1.5 1.5t0.5 2.5q1 5 1 13q7 -4 19 -6q-2 -12 -4 -18zM567 305h-18v-70q0 -8 -2 -12q-1 -2 -3 -3.5t-5 -2.5t-7.5 -2t-10.5 -2q-1 12 -6 21q9 -1 12 -1h4l1 5v67h-31v-12h-16v-17
q9 3 16 6q0 -5 2 -15l-18 -7v-25q0 -14 -7 -17.5t-18 -3.5q-1 9 -5 16h9h4q0 1 0.5 1.5t0.5 1.5v21q-3 -1 -5 -2t-4.5 -2.5t-4.5 -2.5l-8 16q3 1 5.5 2t5 1.5t5.5 1.5l6 2v23h-19v15h19v24h14q4 0 4 -1t-1 -2q-1 -2 -1 -8v-13h15v12h67v-15zM694 243h-29v-30h-15v30h-27
l4 -6q2 -3 3 -5l-14 -7q-2 3 -3.5 6.5t-2.5 6.5l-4 7q-1 -3 -2.5 -6t-3 -6.5t-3 -6.5t-3.5 -6t-5 -6q-2 1 -5 2l-4 4q-3 1 -5 2q10 10 15 23q3 7 4 15.5t1 18.5v52h12q4 0 4 -1t-1 -2q-1 -2 -1 -6v-38q1 3 1.5 6t1 5.5t0.5 5.5l2 6v6q14 -1 15 -3h11q-1 3 -2.5 5t-3 3.5
t-2.5 3t-2 2.5l13 9q7 -9 13 -18l-9 -5h13q6 11 10 24q14 -6 16 -7q1 0 1 -1l-2 -3q-3 -3 -9 -13h16v-13h-27v-13h23v-14h-23v-13h29v-14zM694 243z" />
    <glyph glyph-name="uniE645" unicode="&#xe645;" 
d="M776 479q8 -1 16 -3t15 -6l15 -7q21 -12 36 -30t24 -41t9 -49q0 -6 -1 -11v-12q-1 -5 -2.5 -10t-3.5 -10.5t-4 -10.5q-11 -25 -29.5 -44t-43.5 -29q-13 -6 -26.5 -8.5t-27.5 -2.5q-26 0 -49.5 9t-41.5 25q-6 -6 -12.5 -12t-12.5 -12q-14 -11 -29 -21h-301
q-30 19 -53 43.5t-40 51.5q-9 13 -17 27t-14 29q-13 29 -22 56q-21 63 -28 132h652q-1 -6 -2 -15q-1 -2 -1 -5l-2 -6v-6q-1 -9 -4 -22zM753 259q17 0 32.5 6.5t27 18t18.5 26.5q1 4 2.5 8t2.5 8t1.5 8.5t0.5 8.5q0 16 -6 30.5t-16 25.5t-23.5 18.5t-29.5 9.5
q-10 -34 -27 -72q-16 -38 -40 -74q24 -22 57 -22zM724 152q18 0 30.5 -12.5t12.5 -30t-12.5 -30t-30.5 -12.5h-509q-18 0 -30.5 12.5t-12.5 30t12.5 30t30.5 12.5h509zM724 152z" />
    <glyph glyph-name="uniE646" unicode="&#xe646;" 
d="M831 10l-56 21v570l-441 125l-19 -19l432 -127v-650l-55 15v581l-429 127l-32 -32l433 -127v-664l-471 138v664l139 138l35 -10l464 -128v-622z" />
    <glyph glyph-name="uniE647" unicode="&#xe647;" 
d="M670 -29h-316q-3 120 -3 132q-1 4 -2 7t-5 9l-8 14q-32 55 -43 65q-40 -2 -64 12l-11 6q-79 47 -86 59q-6 13 -1 45.5t13.5 67t13.5 44.5q7 13 35 59q25 41 27 45q6 14 45 41q7 5 10 8q25 19 41 16q22 -3 38.5 -21t15.5 -43q-1 -12 -7.5 -24t-18.5 -22q-10 -8 -22.5 -13
t-23.5 -3q-1 0 -3 1q-12 2 -13 2q-15 -27 -15 -44q-1 -14 -1 -25t-0.5 -20t-1.5 -16q23 6 40 0q6 -3 11.5 -6t8 -5t5.5 -5q4 3 12 8q34 24 49 23q22 -1 31 -3q6 4 14 12.5t12 14.5l-1 1q-18 28 -28.5 49t-10.5 37q0 12 1.5 25.5t7.5 33.5t16.5 34.5t31 25.5t48.5 11
q20 0 36.5 -5.5t27 -14.5t18.5 -21.5t12.5 -24.5t7 -25t3 -22t0.5 -17q0 -16 -10.5 -37t-28.5 -49l-1 -1q11 -16 26 -27q5 1 12 2t19 1q15 1 49 -23q4 -2 7 -4t5 -4q11 10 25 16q17 6 40 0q-2 20 -3 61q0 17 -14 42q-4 1 -6.5 1t-7.5 -1q-9 -2 -18 -0.5t-18 5.5t-17 10
q-7 6 -11.5 12.5t-7.5 14t-3 14.5q-1 25 16 45.5t38 23.5q16 3 41 -16q3 -2 10 -8q39 -27 45 -41q2 -5 27 -45q29 -46 35 -59q9 -18 22 -81t4 -76q-7 -12 -86 -59l-11 -6q-24 -14 -64 -12q-11 -11 -43 -65l-8 -14q-6 -10 -7 -16v-11q0 -9 -0.5 -20.5t-1 -25.5t-0.5 -27
t-0.5 -24t-0.5 -17v-7h-32h32zM670 -29z" />
    <glyph glyph-name="uniE648" unicode="&#xe648;" 
d="M616 610q9 -2 17 -7t14 -13l4 -6q2 -3 3.5 -6t2.5 -6l2 -8q1 -3 1.5 -7t0.5 -8q0 -3 0.5 -9t1 -14t0.5 -16v-17q0 -17 -1 -31.5t-5 -17.5q-2 -3 -4.5 -4.5t-4.5 -0.5q-4 -2 -5 -5q0 -1 -0.5 -5.5t-0.5 -11.5q-1 -5 -1.5 -11.5t-2 -14t-3.5 -16.5q-4 -14 -10 -25t-13 -21
l-16 -18q0 -2 -0.5 -5t-0.5 -6v-4v-6v-17q0 -9 1 -14q0 -5 1.5 -8.5t3.5 -5.5q5 -5 16 -8q5 -1 15 -5q11 -3 26 -8q5 -2 15.5 -6t15.5 -6q7 -2 11 -3.5t10 -3.5t10 -4q14 -5 27 -10q4 -1 7 -2.5t5.5 -2.5t4.5 -2q17 -8 22.5 -17t9.5 -23q2 -7 5 -28q2 -18 6 -41
q1 -11 2.5 -21.5t2.5 -19.5q2 -19 3 -24q1 -11 -3.5 -18.5t-21.5 -11.5q-5 -1 -11 -2t-13.5 -2.5t-16.5 -2.5q-29 -4 -63 -7q-36 -3 -78 -5q-22 -2 -44.5 -2.5t-45.5 -0.5q-24 0 -46.5 0.5t-44.5 1.5t-41.5 2t-37.5 3q-37 3 -64 6q-14 2 -25 4t-19 4q-3 1 -8 3.5t-9.5 6
t-7 9t-1.5 12.5q0 4 4 26q4 23 9 44t9 43q4 21 6 25q3 10 9 21q7 11 22 23q3 3 10 6t17 6q20 7 42 13q21 5 40 10q19 4 25 5q13 3 22 7q5 1 7.5 4t2.5 6v48q-9 8 -18 17q-7 7 -15 18q-3 5 -6.5 10.5t-6.5 11.5q-6 11 -9.5 21t-5.5 20q-3 19 -4 22t-6.5 5t-7.5 9q-7 14 -6 30
q0 7 0.5 18.5t1.5 25.5q1 15 3.5 29t5.5 27q3 9 7 17.5t10 16.5t14 15q13 11 33.5 18t42.5 10.5t41.5 3.5t29.5 -3t17 -7q3 -2 6 -3.5t4.5 -3.5t3 -3.5t3.5 -2.5l5 -5q4 -3 10.5 -2t23.5 -2zM539 155l23 -86l36 98l-35 25zM479 193l-33 -26l38 -98l20 87zM775 518
q4 -1 7.5 -2.5t6.5 -3.5t5 -6q7 -10 8 -24q0 -4 1 -13v-7v-6v-7v-9v-10q-1 -8 -3 -10q-3 -3 -6 -3t-3 -3v-2v-3v-5q-1 -5 -2 -11t-3 -15q-2 -8 -5 -14.5t-7 -11.5q-3 -3 -5 -5.5t-5 -5.5q-1 -6 -1 -12v-19q0 -3 1 -5.5t2 -3.5t2.5 -1.5t3.5 -1t4 -1.5q1 0 3.5 -1t5 -1.5
t7.5 -2.5q4 -1 8.5 -2.5t9 -3.5t9.5 -3q8 -3 14.5 -5.5t12.5 -4.5q2 -1 4.5 -2t4.5 -1.5t3.5 -1.5t2.5 -1.5t2 -0.5q5 -3 8.5 -5.5t5.5 -5.5q1 -1 2 -2.5t1 -3.5l2 -4v-4q1 -4 3 -16q1 -11 3 -25q0 -2 0.5 -4.5t1 -4.5t0.5 -4t0.5 -4t0.5 -3.5t1 -3.5q0 -5 0.5 -9t0.5 -5
q1 -7 -2 -11.5t-13 -6.5q-7 -1 -21 -4q-5 -1 -10.5 -1.5t-11.5 -1t-13 -1.5q-1 5 -2.5 10t-2.5 9q-3 8 -6 18q-3 9 -8 15q-9 13 -19.5 20.5t-19.5 12.5q-4 1 -7 2.5t-6.5 3t-6.5 2.5q-12 3 -20 6q-42 15 -68 21q-13 3 -20.5 5t-8.5 5q-1 1 -1.5 2.5t-1.5 2.5v8v4q0 2 1 5
q12 3 17.5 4t9 2t6.5 1.5t6 2t4.5 3t1.5 3.5v29l-2 1l-3 1l-4 4q3 6 5.5 12.5t4.5 13.5q4 13 9 33q5 18 8 45q2 21 3 38q1 16 1 29v25q10 2 21 2h5q3 0 5.5 -0.5t4.5 -0.5t3 -1q14 -4 17 -8t6 -7q4 -1 7.5 -0.5t13.5 -1.5zM733 252l6 -22l15 -5l11 30l-17 15zM690 267
l-14 -14v-3l26 -8l3 9zM321 536q-13 2 -27 1q-12 -1 -25 -4q-7 -2 -13.5 -5t-11.5 -7q-10 -6 -16 -16q-2 -2 -3 -4t-2 -5l-2 -4q-1 -3 -2 -5q-3 -10 -4 -18q-1 -9 -1 -13v-8q0 -3 -0.5 -6t-0.5 -6q-1 -9 1 -15q1 -7 2 -9q1 -3 3.5 -4.5t4.5 -2.5l3 -11q1 -11 5 -21
q3 -5 5 -9.5t5 -7.5q1 -2 2.5 -4t3.5 -4l4 -4q2 -2 3 -4q3 -4 8 -8v-10v-14l-3 -8q-3 -4 -11 -5l-14 -4q-3 0 -10 -2t-11 -3q-5 -2 -11 -3.5t-11 -2.5q-11 -4 -18 -6q-12 -6 -19.5 -16t-9.5 -24q-3 -12 -8 -33q-2 -11 -3.5 -17.5t-2.5 -10.5v-9q0 -4 1 -9q2 -9 14 -11
q5 -2 14 -3q3 0 6 -0.5t5.5 -1t5.5 -0.5q9 -2 19 -3q2 10 5 20q3 9 7 18q1 3 2 5l4 4q1 2 2.5 4.5t2.5 4.5q7 7 17 14q8 6 18 14q11 8 22 14l-8 21l18 14l19 -22l10 3q1 0 2 0.5t3 0.5l3 1l16 19l14 -12l8 2q1 0 3 0.5t4 0.5l8 2q10 2 16 3q3 1 4.5 3t2.5 6v5q1 2 1 4v2
q-3 1 -5 2t-4.5 1.5t-4.5 1.5l-12 3l-9 4q-7 2 -7.5 6.5t-0.5 12.5v8v4v4q0 5 1 10q-2 4 -4.5 7.5t-4.5 7t-4 7.5q-2 3 -4 7l-4 8q-2 4 -3 8q-6 13 -9 27q-2 9 -3.5 19.5t-2.5 20.5q-2 22 -1 39v14l2 14q0 7 1 13zM321 536z" />
    <glyph glyph-name="uniE649" unicode="&#xe649;" 
d="M799 330l-74 194h-275l55 -194h294zM818 271h-294l56 -193h312zM243 519l-111 -443h390l-111 443h-168zM243 519z" />
    <glyph glyph-name="uniE64A" unicode="&#xe64a;" 
d="M842 461q-82 102 -193.5 152.5t-220.5 27.5q-57 -12 -115 -51t-104.5 -94.5t-69 -131t-6.5 -150.5q10 -51 38.5 -95.5t65.5 -74.5t81 -52t86.5 -31.5t80 -8.5t62.5 14q21 11 24.5 24t-5.5 25t-17.5 26.5t-12.5 28.5t11 31q16 19 46 25.5t61 4.5t73.5 1t75.5 14
q30 11 54 43t35.5 75.5t-0.5 97t-50 99.5zM310 101q-24 0 -41.5 20t-17.5 48t17.5 47.5t41.5 19.5q16 0 30 -9t22 -24.5t8 -34t-8 -34t-22 -24.5t-30 -9zM301 281q-29 0 -49 23t-20 55.5t20 56t48.5 23.5t49 -23.5t20.5 -55.5q0 -8 -1.5 -16t-4 -15t-6.5 -13.5t-8.5 -11.5
t-10 -9.5t-12 -7.5t-13 -4.5t-13.5 -1.5zM458 416q-28 0 -48.5 23t-20.5 56q0 13 3.5 25t10 21.5t15 17t19 11.5t21.5 4q19 0 35 -10.5t25 -29t9 -39.5q0 -33 -20 -56t-49 -23zM567 484q0 13 4.5 25.5t12.5 21.5t19 14.5t23 5.5q24 0 41.5 -19.5t17.5 -47.5t-17.5 -48
t-42 -20t-41.5 20t-17 48zM705 236q-16 0 -30 9t-22 24.5t-8 34.5q0 28 17.5 47.5t42 19.5t42 -19.5t17.5 -47.5t-17.5 -48t-41.5 -20zM705 236z" />
    <glyph glyph-name="uniE64B" unicode="&#xe64b;" 
d="M512 -82q-104 0 -192 51t-139 139t-51 192q0 52 13.5 101.5t38.5 91.5t60 77t77 60t91.5 38.5t101.5 13.5q104 0 192 -51t139 -139t51 -192t-51 -192t-139 -139t-192 -51zM601 379l-75 133l-74 -133l-152 -29l105 -111l-19 -151l140 64l140 -64l-19 151l105 111z" />
    <glyph glyph-name="uniE64C" unicode="&#xe64c;" 
d="M647 423q12 0 27 -1q-18 81 -96 135.5t-178 54.5q-112 0 -191.5 -67t-79.5 -164q0 -15 2.5 -30.5t7 -29.5t11.5 -28t16 -26.5t20 -24t24 -22.5t27 -22l-27 -81l95 47q70 -13 95 -13h12q7 0 13 1q-8 29 -8 57q0 43 18 83t49 68.5t73.5 45.5t89.5 17v0zM502 497
q6 0 11 -1.5t9.5 -4.5t7.5 -7.5t4.5 -9.5t1.5 -11q0 -8 -2.5 -14t-7 -10.5t-11 -7t-13.5 -2.5q-16 0 -28.5 9.5t-12.5 24.5t12.5 24.5t28.5 9.5v0zM312 429q-4 0 -7.5 0.5t-7.5 1.5t-7 3l-6 4q-3 2 -5.5 5t-4 6t-2.5 6.5t-1 7.5q0 6 2.5 11t6.5 9.5t9 7.5t11 4.5t12 1.5
q15 0 24.5 -9.5t9.5 -24.5t-9.5 -24.5t-24.5 -9.5v0zM895 212q0 53 -32 98.5t-85 72t-113 26.5q-97 0 -164 -58t-67 -139.5t67 -139t164 -57.5q27 0 81 14l74 -41l-20 68q95 71 95 156v0zM590 246q-4 0 -8 1.5t-7.5 4t-6 6t-4 7.5t-1.5 8q0 10 8.5 18.5t18.5 8.5t18 -4
t12 -10t4 -13q0 -11 -9.5 -19t-24.5 -8v0zM739 246q-10 0 -18.5 8.5t-8.5 18.5t8.5 18.5t18.5 8.5q7 0 13.5 -2.5t11 -6t7 -8.5t2.5 -10q0 -11 -9.5 -19t-24.5 -8v0zM739 246z" />
    <glyph glyph-name="uniE64D" unicode="&#xe64d;" 
d="M128 494v78q9 29 37 40h694q34 -14 36 -40q1 -7 1 -80h-16h-254h-229h-254q-3 0 -10 1zM880 420h-736q-3 0 -16 -1v-388q10 -27 22 -35t40 -8h646q32 0 46 14t14 46v354v18h-16zM440 109h-263v46h263v-46zM487 229h-310v46h310v-46zM584 229h-70v46h70v-46zM584 229z" />
    <glyph glyph-name="uniE64E" unicode="&#xe64e;" 
d="M886 449v1q-1 3 -1 5l-65 160q-8 25 -30 39.5t-51 14.5h-452q-29 0 -50 -14t-29 -38l-69 -164l-1 -3q-4 -12 -6 -24t-2 -24q0 -42 22 -77.5t59 -55.5q15 -8 33 -12t38 -4q17 0 33 3.5t31 10.5t28 17t23 22q45 -53 115 -53q23 0 43.5 6.5t39 18.5t32.5 29q45 -54 115 -54
q21 0 39 4.5t34 12.5q36 20 57.5 55.5t21.5 77.5q0 24 -8 46zM726 423h-440q-12 0 -20 8t-8 19q0 7 4 13.5t10 10.5t14 4h440q7 0 13.5 -4t10 -10.5t3.5 -13.5q0 -11 -8 -19t-19 -8zM809 230h-3h-2l-3 -2q-33 -13 -66 -11q-68 4 -108 38q-49 -42 -114 -42q-71 0 -116 38
q-47 -41 -115 -41q-28 0 -65 14l-2 1q-1 0 -2 0.5t-2 0.5q-4 1 -6 1q-11 0 -19 -8t-8 -20v-198q0 -29 20.5 -49.5t49.5 -20.5h518q14 0 27.5 5.5t22.5 15t15 22.5t6 28l-1 201q0 11 -8 19t-19 8zM809 230z" />
    <glyph glyph-name="uniE64F" unicode="&#xe64f;" 
d="M512 -80q-77 0 -147.5 30t-121.5 81t-81 121.5t-30 147.5q0 103 51 190.5t138.5 138.5t190.5 51q77 0 147.5 -30t121.5 -81t81 -121.5t30 -147.5q0 -52 -13.5 -101t-38 -91t-59.5 -77t-77 -59.5t-91 -38t-101 -13.5zM678 15h72v285h-72v-285zM488 15h72v95h-72v-95z
M298 15h71v214h-71v-214zM369 585h-71v-190h71v190zM417 347q0 10 -7 17t-17 7h-119q-23 0 -23 -24v-71q0 -3 0.5 -6t2.5 -6l4 -4q2 -3 4.5 -4.5t5.5 -2t6 -0.5h119q7 0 12.5 3t8.5 8.5t3 11.5v71zM560 585h-72v-309h72v309zM607 229q0 4 -1 7.5t-3.5 6.5t-5.5 5t-6.5 3.5
t-7.5 1.5h-119q-9 0 -16 -7t-7 -17v-72q0 -9 7 -16t16 -7h119q10 0 17 7t7 16v72zM750 585h-72v-119h72v119zM773 443h-118q-10 0 -17 -7t-7 -17v-72q0 -9 7 -16t17 -7h118q10 0 17 7t7 16v72q0 10 -7 17t-17 7zM750 418h24v-70h-24v70zM701 418h24v-70h-24v70zM655 418h24
v-70h-24v70zM560 228h24v-70h-24v70zM511 228h24v-70h-24v70zM465 228h24v-70h-24v70zM370 347h24v-70h-24v70zM323 347h23v-70h-23v70zM275 347h24v-70h-24v70z" />
    <glyph glyph-name="uniE650" unicode="&#xe650;" 
d="M578 627q-8 10 -18.5 16t-23.5 7h-5q-11 0 -23 -4.5t-26 -13.5l-16 -12q-17 -12 -31 -22q-8 -7 -18 -14t-22 -16t-23.5 -17.5t-22.5 -16.5q-17 -12 -35.5 -26t-38 -28.5t-40.5 -30.5h-31q-32 0 -53 -19t-21 -46v-4v-165q0 -13 5.5 -25.5t16.5 -21.5q21 -18 51 -18h13
q10 0 14 1h7q37 -28 74 -55q37 -28 76 -59q44 -34 78 -62q28 -23 53 -25h7q5 0 9 0.5t8.5 1.5t8 2.5t7.5 3.5t7 5q17 13 25 35q3 6 4.5 12t2 12t0.5 12v523q0 15 -3 33q-1 5 -2.5 10t-3.5 9.5t-4.5 9t-5.5 8.5zM885 364q-8 30 -23.5 57t-36.5 51q-11 11 -22.5 21t-23.5 19
q-4 4 -9 5.5t-11 1.5q-7 0 -12.5 -2.5t-10.5 -6.5q-10 -10 -10 -23q0 -9 3.5 -15.5t10.5 -11.5q19 -14 35 -31t29 -37q25 -42 25 -92v-8q0 -3 -0.5 -6t-0.5 -6l-2 -8v-6q-1 -4 -2 -7.5t-2 -6.5q-3 -11 -7.5 -22t-10.5 -21q-12 -21 -28 -38t-35 -30l-1 -1q0 -1 -1 -1t-1 -1
q-12 -10 -12 -25q0 -4 1.5 -8t3.5 -7.5t5 -7t7 -5.5t8 -3t8 -1q11 0 19 6q12 8 24 18.5t22 21.5q22 23 37.5 50.5t23.5 58.5q5 15 7 31t2 33q0 16 -2 32t-7 32zM716 213q14 18 22.5 39t8.5 48q0 28 -8 48q-9 19 -23 39q-2 4 -5 7l-6 6q-3 3 -7 4.5t-8 1.5q-6 0 -11 -2.5
t-10 -6.5q-8 -9 -8 -21q0 -6 2 -10q3 -8 7 -15q3 -3 5 -6.5t4 -7.5q5 -7 8 -16q1 -4 2 -9.5t1 -11.5t-1 -11.5t-2 -10.5q-3 -9 -8 -16q-4 -7 -9 -13q-2 -4 -4 -7.5t-4 -7.5h1q-2 -5 -2 -10q0 -4 1 -8t3 -7l4 -6q9 -9 21 -9q9 1 15 6l6 6q3 3 5 7zM716 213z" />
    <glyph glyph-name="uniE651" unicode="&#xe651;" 
d="M476 681q-137 -13 -234.5 -110.5t-110.5 -234.5q18 -2 35.5 -6t35.5 -9.5t36 -12.5t35.5 -16t35 -19.5t34 -22.5t33 -26t31.5 -29q60 -61 96 -132.5t45 -143.5q137 13 234.5 110.5t110.5 234.5q-47 6 -94.5 23.5t-94.5 47.5t-87 70t-70 87t-47.5 94.5t-23.5 94.5z
M894 312q-1 47 -13.5 92.5t-37.5 88t-60 78.5q-53 52 -120 80.5t-139 30.5q5 -41 21 -83t43 -83t63 -77q54 -54 117.5 -86.5t125.5 -40.5zM130 288q2 -72 30.5 -139t80.5 -120q18 -17 38 -32.5t40.5 -27.5t43 -21.5t45 -16t46 -10t46.5 -3.5q-8 62 -40.5 125.5t-86.5 117.5
q-22 22 -45.5 40.5t-48 33t-50 25.5t-50.5 18t-49 10zM130 288z" />
    <glyph glyph-name="uniE652" unicode="&#xe652;" 
d="M512 -83q-104 0 -192.5 51t-139.5 139.5t-51 192.5t51 192.5t139.5 139.5t192.5 51t192.5 -51t139.5 -139.5t51 -192.5t-51 -192.5t-139.5 -139.5t-192.5 -51zM483 59h60v62h-60v-62zM615.5 470.5q-35.5 33.5 -95.5 33.5q-65 0 -102 -39.5t-37 -103.5h54q1 39 12 59
q7 13 17 21t23.5 12.5t30.5 4.5q20 0 35 -5.5t24 -16.5q6 -7 10 -15t6 -17t2 -19q0 -21 -13 -40q-7 -11 -17 -22l-25 -23q-35 -34 -45 -60q-5 -13 -7.5 -30.5t-2.5 -38.5h53q0 38 9 57q4 9 13.5 21t24.5 26q40 38 53 58q4 5 6 10.5t4 12t2.5 14t0.5 15.5q0 52 -35.5 85.5z
" />
    <glyph glyph-name="uniE653" unicode="&#xe653;" 
d="M713 683h-402q-7 0 -13.5 -2.5t-11 -7.5t-7.5 -11t-3 -13v-42v-16v-539v-38v-63q0 -14 10 -24t25 -10h58h126h34h126h58q15 0 25 10t10 24v81v20v539v34v24q0 14 -10 24t-25 10zM558 641q4 5 11 5t12 -5q2 -2 3 -5t1 -6q0 -2 -0.5 -4t-1.5 -4t-2 -3q-5 -5 -12 -5
q-6 0 -11 5t-5 11.5t5 10.5zM465 646h45q3 0 6 -1t5 -3.5t3.5 -5.5t1.5 -6q0 -7 -5 -11.5t-11 -4.5h-45q-6 0 -11 4.5t-5 11.5q3 13 16 16zM512 -51q-4 0 -8.5 1t-8 3t-6.5 4.5t-5.5 5.5t-4.5 7t-3 8t-1 8q0 16 11 27t26 11q7 0 14 -3t12 -8t8 -12t3 -15q0 -15 -11 -26
t-26 -11zM714 52h-404v526h404v-526zM714 52z" />
    <glyph glyph-name="uniE654" unicode="&#xe654;" 
d="M479 673q-15 0 -23.5 -5t-13.5 -5q-2 -1 -4 -1h-2h-2q-1 0 -2.5 -0.5t-5 -1t-9.5 -1.5t-15 -2q-28 -6 -42.5 -33t-17.5 -51q-4 -41 -1 -107q1 -6 0.5 -9.5t-2.5 -5.5t-3.5 -2.5t-3.5 -1.5h-1q-8 1 -12 -7t-4.5 -19.5t-0.5 -23t1 -19.5l1 -9q1 -3 2 -9t1.5 -8t2.5 -6.5
t5.5 -7t10 -6.5t15.5 -7q8 -23 24.5 -42.5t28.5 -27.5l12 -7q2 -33 3 -57q-1 1 -1 -5t-4 -16t-13.5 -20.5t-32 -20.5t-55.5 -15q-29 -4 -52.5 -10.5t-37.5 -12t-28 -14.5t-19.5 -13.5t-15 -14.5t-11.5 -12q-21 -19 -21 -119h764q-1 11 -2.5 28t-8.5 49.5t-17 41.5
q0 1 -11 12t-15.5 14.5t-19.5 13t-29 15t-37.5 12t-52.5 10.5q-24 4 -42.5 10t-28.5 13t-17 15t-8.5 15.5t-2 13t-0.5 9.5l1 5l4 49q4 3 11 9.5t22.5 28t23.5 44.5q5 3 14.5 9t11.5 8l8 6q5 4 6.5 8t3.5 10v3q0 2 0.5 7t0.5 11v12q0 7 -1 13t-2.5 12t-4 10.5t-6 7t-8.5 2.5
h-4q-2 0 -4.5 4t-0.5 12q3 17 3 47.5t-2 48.5q-1 3 -1 12.5t-0.5 17t-3 18t-6 17.5t-11 13.5t-17.5 7.5q-16 4 -29.5 1.5t-17.5 -1.5q-6 0 -24.5 19.5t-33.5 19.5zM479 673z" />
    <glyph glyph-name="uniE655" unicode="&#xe655;" 
d="M788 431h-74q0 100 -74 162q-57 46 -131 46q-57 0 -104 -27t-74.5 -75t-27.5 -106h-73q0 52 22 103.5t59 90.5t89.5 63.5t108.5 24.5q74 0 139 -41t102.5 -106t37.5 -135zM831 310q0 30 -21.5 52t-51.5 22h-492q-10 0 -19.5 -3t-17.5 -7.5t-14.5 -11.5t-11.5 -15
t-7.5 -17.5t-2.5 -19.5v-349q0 -9 2 -17t5.5 -15.5t8.5 -14t11.5 -11.5t13.5 -8.5t15.5 -5.5t16.5 -2h492q30 0 51.5 21.5t21.5 52.5v349zM571 37q0 -23 -16 -39t-39 -16h-8q-23 0 -39 16t-16 39v150q0 22 16 38.5t39 16.5h8q23 0 39 -16.5t16 -38.5v-150zM571 37z" />
    <glyph glyph-name="uniE656" unicode="&#xe656;" 
d="M803 -67h-582l-1 1l-3 1q-50 9 -67 57q0 1 -5 17v582l1 1q1 2 1 3q5 27 21 44.5t44 24.5q1 1 2.5 1t3.5 0.5t3 1.5h500q10 -3 19.5 -7.5t17 -10.5t15.5 -14q37 -35 73 -72q27 -28 33 -54v-500l-2 -4q-5 -27 -21 -44.5t-44 -24.5q-1 -1 -2.5 -1t-3.5 -0.5t-3 -1.5z
M512 -39h49h52h48h52h49q32 0 32 33v274q0 10 -3.5 17.5t-10.5 11t-18 3.5h-500q-8 0 -14 -2t-10 -6t-6 -10t-2 -14v-275q0 -6 1 -9q5 -23 31 -23h250zM498 384h178q34 0 34 34v187q0 34 -34 34h-356q-34 0 -34 -34v-187q0 -34 33 -34h179zM569 610h83v-196h-83v196z
M569 610z" />
    <glyph glyph-name="uniE657" unicode="&#xe657;" 
d="M988 730q-3 1 -5.5 1.5t-5.5 0.5q-17 0 -27 -11l-906 -456q-28 -15 -26 -41q1 -6 4 -11.5t8 -9.5t11 -6q288 -91 289 -91l4 -2l17 50l-253 79l776 404q-220 -250 -433 -491q-30 -33 -30 -70l1 -153v-53v-2q0 -7 4 -12.5t9.5 -8.5t12.5 -3q10 0 18 7t9 17v204q-1 19 10 33
q120 135 463 524q-110 -549 -127 -633q-1 -4 -4 -4h-2q-14 4 -278 84l-5 2l-17 -50l5 -2q1 0 15.5 -4.5t37.5 -11.5t51.5 -15.5t57.5 -17.5t54 -16.5t43.5 -13t23.5 -7.5q8 -2 15 -2q14 0 25.5 6t19 16.5t10.5 24.5q2 9 55 276q7 34 13.5 66t13.5 65.5t13 64t12 60t11 54
t9 45.5t7 36t5 23.5t2 10.5v3q4 7 1 20.5t-17 20.5v0zM988 730z" />
    <glyph glyph-name="uniE658" unicode="&#xe658;" 
d="M302 -119v209l158 -104zM722 -119l-278 208l382 525l-492 -443l-241 181l838 367zM722 -119z" />
    <glyph glyph-name="uniE659" unicode="&#xe659;" 
d="M136 -210v996h374q114 0 183 -30.5t108 -93t39 -131.5q0 -32 -9 -62t-26 -58t-43.5 -51t-60.5 -40q90 -27 138.5 -90.5t48.5 -150.5q0 -70 -29.5 -130t-73 -93t-109 -49.5t-160.5 -16.5h-380zM268 367h215q88 0 126 12q50 15 75.5 49.5t25.5 87.5q0 24 -6 46t-18 41
q-24 38 -68 51.5t-151 13.5h-199v-301zM268 -92h248q64 0 89 4q8 2 15 3.5t14 3.5t13.5 4t12 5t11 5.5t10.5 6.5q31 19 51 55q10 18 14.5 39t4.5 45q0 55 -28.5 96.5t-79 58t-145.5 16.5h-230v-342zM136 -210v996h374q114 0 183 -30.5t108 -93t39 -131.5q0 -32 -9 -62
t-26 -58t-43.5 -51t-60.5 -40q90 -27 138.5 -90.5t48.5 -150.5q0 -70 -29.5 -130t-73 -93t-109 -49.5t-160.5 -16.5h-380zM268 367h215q88 0 126 12q50 15 75.5 49.5t25.5 87.5q0 24 -6 46t-18 41q-24 38 -68 51.5t-151 13.5h-199v-301zM268 -92h248q64 0 89 4q8 2 15 3.5
t14 3.5t13.5 4t12 5t11 5.5t10.5 6.5q31 19 51 55q10 18 14.5 39t4.5 45q0 55 -28.5 96.5t-79 58t-145.5 16.5h-230v-342zM268 -92z" />
    <glyph glyph-name="uniE65A" unicode="&#xe65a;" 
d="M1024 658v-69h-979v69h979zM1024 237v-69h-979v69h979zM878 448v-69h-681v69h681zM873 33v-69h-677v69h677z" />
    <glyph glyph-name="uniE65B" unicode="&#xe65b;" 
d="M790 316l-178 -128l69 -19l43 -11q-56 -97 -162 -129q-41 -13 -83 -13q-118 0 -201 83t-83 201q0 58 22.5 110.5t60.5 90.5t90.5 60.5t110.5 22.5q68 0 128 -31t99 -84q4 -5 9.5 -8.5t11.5 -3.5q11 0 18.5 7.5t7.5 18t-8 18.5q-47 61 -116.5 97t-149.5 36
q-91 0 -168 -44.5t-121.5 -121.5t-44.5 -168t44.5 -168t121.5 -121.5t168 -44.5q47 0 92 13t82.5 36.5t68.5 56.5t52 73l36 -10l69 -19zM790 316z" />
    <glyph glyph-name="uniE65C" unicode="&#xe65c;" 
d="M679 452q14 0 32 -2q-22 100 -118 167t-219 67q-90 0 -167 -37.5t-121.5 -103t-44.5 -143.5q0 -132 133 -225l-33 -100l116 58q6 -1 23 -5l26 -4q7 -2 20.5 -4t24.5 -3t23 -1q15 0 31 2q-10 35 -10 70q0 109 82.5 186.5t201.5 77.5zM499 542q19 0 30.5 -11.5t11.5 -30
t-11.5 -30t-30.5 -11.5t-34.5 11.5t-15.5 30t15.5 30t34.5 11.5zM266 459q-13 0 -24.5 5t-18.5 14.5t-7 22t7 22t18.5 14.5t24.5 5q5 0 9 -0.5t8 -2t7 -3.5l6 -6q3 -2 5 -5.5t3.5 -7t2.5 -8t1 -9.5q0 -18 -11.5 -29.5t-30.5 -11.5zM983 192q0 49 -23 94t-62 77t-91 51.5
t-107 19.5q-119 0 -201.5 -71t-82.5 -171q0 -101 82.5 -171.5t201.5 -70.5q15 0 34 2.5t31.5 5.5t34.5 8l91 -50l-25 83q117 88 117 193zM608 233q-13 0 -23 10.5t-10 23.5q0 8 4.5 15.5t12.5 12.5t16 5q9 0 17 -3t13.5 -7.5t8.5 -10.5t3 -12q0 -22 -26 -31q-8 -2 -16 -3z
M791 233q-4 0 -9 2t-9.5 5.5t-7.5 7.5t-5 9t-2 10q0 8 5 15.5t12.5 12.5t15.5 5q18 0 30 -10t12 -23t-11.5 -23.5t-30.5 -10.5zM791 233z" />
    <glyph glyph-name="uniE65D" unicode="&#xe65d;" 
d="M43 658h979v-69h-979v69zM43 237h979v-69h-979v69zM342 448h681v-69h-681v69zM347 33h677v-69h-677v69z" />
    <glyph glyph-name="uniE65E" unicode="&#xe65e;" 
d="M233 190l115 373l116 -373h-231zM453 706h-177l-264 -836h123l62 199h306l63 -199h153zM730 64l67 178l67 -178h-134zM857 325h-102l-82 -221l36 -112v2h177l37 -115h89z" />
    <glyph glyph-name="uniE65F" unicode="&#xe65f;" 
d="M512 -144zM512 722q-132 0 -243.5 -43.5t-178 -122t-66.5 -176.5q0 -49 18 -97.5t49.5 -91.5t77 -80.5t98.5 -64t116 -42t128 -15.5h1h1q7 50 32.5 96t67.5 83t95.5 64.5t118.5 42.5t135 15q4 0 12.5 -0.5t9.5 -0.5q2 8 9 19.5t7 23.5q0 49 -18 98t-49.5 91.5t-77 80
t-99 64t-116.5 41.5t-128 15v0zM219 235q-40 0 -68.5 28.5t-28.5 69t28.5 69t69 28.5t69 -28.5t28.5 -69t-28.5 -69t-69.5 -28.5zM390 478q-30 0 -51.5 21.5t-21.5 52t21.5 51.5t51.5 21t51.5 -21t21.5 -51.5t-21.5 -52t-51.5 -21.5zM631 530q-12 0 -23 5t-19 13t-13 19
t-5 23t5 23.5t13 19.5t19 12.5t23 4.5q25 0 43 -17.5t18 -42.5q0 -16 -8.5 -30t-22 -22t-30.5 -8zM804 431q-9 0 -18 4t-15.5 10.5t-10.5 15.5t-4 18q0 13 6.5 24.5t17.5 18t24 6.5q20 0 34.5 -14.5t14.5 -34.5t-14.5 -34t-34.5 -14zM804 431z" />
    <glyph glyph-name="uniE660" unicode="&#xe660;" 
d="M1035 683v-74h-1044v74h1044zM1035 234v-74h-1044v74h1044zM717 458v-73h-727v73h727zM711 16v-74h-722v74h722z" />
    <glyph glyph-name="uniE661" unicode="&#xe661;" 
d="M831 171q-6 76 -79 157q2 4 3 13.5t0.5 23t-7 29.5t-18.5 28v2q0 101 -63 167.5t-155 66.5t-155 -66.5t-63 -167.5v-2q-16 -16 -22 -38t-4.5 -35.5t4.5 -20.5q-73 -81 -79 -157v-12q0 -6 1 -12.5t2.5 -12.5t3.5 -11t4 -9q7 -6 16.5 -3.5t22.5 16.5t23 36q12 -44 50 -95
q-24 -5 -39 -22t-16 -35t6 -33q7 -11 18 -18.5t29.5 -12.5t41.5 -5q100 0 141 39q5 5 15 5q5 0 8.5 -1t6.5 -4q41 -39 141 -39q34 0 56.5 10t32.5 26q7 15 6 33t-16 35t-39 22q38 51 50 95q6 -13 13.5 -24t14.5 -17.5t13.5 -9.5t12 -2.5t8.5 4.5q6 8 8.5 24.5t2.5 32.5z
M831 171z" />
    <glyph glyph-name="uniE662" unicode="&#xe662;" 
d="M1006 355h-439v439h-110v-439h-439v-110h439v-439h110v439h439v110z" />
    <glyph glyph-name="uniE663" unicode="&#xe663;" 
d="M781 -96h-538q-47 0 -81 34t-34 81v538q0 47 34 81t81 34h538q47 0 81 -34t34 -81v-538q0 -47 -34 -81t-81 -34zM455 284q0 94 -90 94q-48 0 -85 -23v-42q9 7 18.5 12.5t20 9.5t21 6t21.5 2q26 0 38.5 -15.5t12.5 -45.5l-74 -10q-83 -12 -83 -82q0 -16 5.5 -29.5t16 -23
t25 -14.5t32.5 -5q51 0 77 44h1v-38h43v160zM756 345q-9 11 -20.5 18.5t-24.5 11t-29 3.5q-28 0 -49.5 -12t-36.5 -36v162h-45v-368h45v35q26 -41 75 -41q25 0 45.5 9t36 28t23.5 44t8 56q0 57 -28 90zM664 154q-30 0 -49 21q-10 10 -15 23t-5 28v34q0 36 21 59t54 23
q16 0 28.5 -6t21.5 -17q18 -25 19 -63q0 -48 -20 -75t-55 -27zM346 154q-11 0 -19 2.5t-14.5 8t-9.5 13t-3 16.5q0 20 11 31q13 11 42 16l59 8v-24q0 -31 -19 -51t-47 -20z" />
    <glyph glyph-name="uniE664" unicode="&#xe664;" 
d="M512 736q-122 0 -225 -60t-163 -163t-60 -225t60 -225t163 -163t225 -60t225 60t163 163t60 225t-60 225t-163 163t-225 60zM594 44h-108v372l-68 -38l-28 90l120 64h84v-488z" />
    <glyph glyph-name="uniE665" unicode="&#xe665;" 
d="M512 736q-122 0 -225 -60t-163 -163t-60 -225t60 -225t163 -163t225 -60t225 60t163 163t60 225t-60 225t-163 163t-225 60zM620 82q-24 -22 -57 -33.5t-73 -11.5q-74 0 -121 32l-12 8l31 92l21 -14q5 -3 10.5 -6t13.5 -6t16.5 -5t18.5 -3.5t19 -1.5q29 0 49.5 15
t20.5 46q0 27 -20 45.5t-62 18.5h-50v90h49q25 0 47 13.5t22 38.5q0 43 -50 43q-18 0 -36.5 -7t-31.5 -16l-22 -15l-31 88l12 9q20 15 53 26t71 11q71 0 108 -38t37 -90q0 -20 -6 -39t-18 -35t-29 -28q15 -8 27 -19.5t21 -26t14 -33t5 -38.5q0 -67 -47 -110z" />
    <glyph glyph-name="uniE666" unicode="&#xe666;" 
d="M512 736q-122 0 -225 -60t-163 -163t-60 -225t60 -225t163 -163t225 -60t225 60t163 163t60 225t-60 225t-163 163t-225 60zM668 41h-312v70l53 55q77 79 109 125t32 87q0 20 -6.5 34t-19.5 21t-32 7q-35 0 -73 -31l-21 -17l-37 88l12 9q56 46 133 46q74 0 116 -46
q9 -10 15.5 -21.5t11.5 -25t7.5 -28t2.5 -29.5q0 -63 -36.5 -119.5t-103.5 -123.5l-4 -4h153v-97z" />
    <glyph glyph-name="uniE667" unicode="&#xe667;" 
d="M848 321q2 2 3.5 5t1.5 7v375q0 7 -6 12q-4 5 -11 5h-376q-7 0 -12 -5l-355 -354q-17 -18 -23.5 -42t0 -48t23.5 -42l268 -268q28 -27 66.5 -27t65.5 27zM610 624q14 15 32.5 22.5t38.5 7.5q41 0 70.5 -29.5t29.5 -71t-29 -70.5q-9 -8 -18.5 -14.5t-20 -10t-21.5 -4.5
t-22 0t-21.5 4.5t-20.5 10t-18 14.5q-19 19 -26 45t0 51.5t26 44.5zM439 165l-56 56l-46 -46l-28 29l46 45l-58 58l23 23l58 -57l31 31l-58 58l23 23l50 -50l43 164l32 -32q-35 -120 -46 -149v-1q12 6 51 18l98 29l31 -31l-164 -43l48 -48l-23 -22l-56 55l-32 -31l56 -56z
M958 328l-80 367l-4 8q1 -28 0.5 -155.5t0.5 -155.5q-2 -14 -0.5 -26t0.5 -27t-6 -26q-50 -53 -108.5 -111.5t-129.5 -129t-111 -109.5q-20 -28 -54 -39l89 -58q32 -21 70 -12.5t59 40.5l271 421q4 6 3 13z" />
    <glyph glyph-name="uniE668" unicode="&#xe668;" horiz-adv-x="1664" 
d="M1152 796h-640q-206 0 -351 -145t-145 -351t145 -351t351 -145h640q206 0 351 145t145 351t-145 351t-351 145zM80 300q0 117 58 216.5t157.5 157.5t216.5 58t216.5 -58t157.5 -157.5t58 -216.5t-58 -216.5t-157.5 -157.5t-216.5 -58t-216.5 58t-157.5 157.5t-58 216.5z
M1152 -148h-521q150 40 247.5 164.5t97.5 283.5t-97.5 283.5t-247.5 164.5h521q121 0 224.5 -60t163.5 -163.5t60 -224.5t-60 -224.5t-163.5 -163.5t-224.5 -60z" />
    <glyph glyph-name="uniE669" unicode="&#xe669;" horiz-adv-x="2102" 
d="M29 300q0 -99 38.5 -189t103.5 -155t155 -103.5t189 -38.5h17q8 0 16 1h1017q17 -1 33 -1q99 0 189 38.5t155.5 103.5t104 155t38.5 189t-38.5 189t-104 155t-155.5 103.5t-189 38.5q-16 0 -33 -1h-1017q-17 1 -33 1q-181 0 -318 -118q-131 -114 -161 -284q-7 -42 -7 -84
zM1143 300q0 113 56 209t151.5 151.5t209 55.5t209 -55.5t151.5 -151.5t56 -209q0 -161 -109 -280q-105 -116 -260 -133q-24 -3 -48 -3q-84 0 -161 33t-133 88.5t-89 132.5t-33 162zM1143 300z" />
    <glyph glyph-name="uniE66A" unicode="&#xe66a;" 
d="M852 739h-682q-44 0 -74.5 -30.5t-30.5 -74.5v-568q0 -44 30.5 -74.5t74.5 -30.5h682q43 0 74 30.5t31 74.5v568q0 29 -14 53t-38 38t-53 14zM750 363q-6 -8 -16 -8q-5 0 -10 4l-26 18v-202q0 -10 -7 -17t-17 -7h-98v152q0 16 -11.5 27.5t-27.5 11.5h-26h-27
q-16 0 -27.5 -11.5t-11.5 -27.5v-152h-97q-10 0 -17 7t-7 17v202l-26 -18q-5 -3 -11 -3q-10 0 -15 8q-3 4 -3.5 9t1.5 9.5t6 6.5l224 156q3 2 5.5 3t5.5 1q6 0 10 -4l224 -156q4 -2 6 -6.5t2 -9.5t-3 -10zM882 -102h-742q-5 0 -9.5 -2.5t-7 -7t-2.5 -9.5q0 -7 5.5 -12.5
t13.5 -5.5h742q3 0 6 1t5.5 2.5t4 4t2.5 5t1 5.5q0 8 -5.5 13.5t-13.5 5.5z" />
    <glyph glyph-name="uniE66B" unicode="&#xe66b;" 
d="M308 224h135v38h-135v-38zM827 -41h-630q-3 0 -6 -1.5t-5 -3.5t-3.5 -5t-1.5 -6q0 -7 5 -11.5t11 -4.5h630q5 0 8.5 2t5.5 6t2 8q0 13 -12 15q-3 1 -4 1zM433 354h-125v-32h125v32zM802 673h-580q-37 0 -63 -26t-26 -63v-483q0 -37 26 -63t63 -26h580q37 0 63 26t26 63
v483q0 37 -26 63t-63 26zM463 192h-20v15h-135v-15h-20v180h165v-76h-20v8h-125v-24h155v-88zM488 367h-20v29h-195v-29h-20v47h117q-4 7 -8 13l-8 12l18 10q9 -11 20 -28l-13 -7h109v-47zM631 247q23 32 40 63q-5 9 -10.5 18.5t-10.5 18.5t-11 18l15 9q13 -20 27 -44
q5 10 9.5 19.5t8.5 19t7 19.5l18 -7q-8 -18 -16 -35.5t-16 -34.5q16 -28 34 -59l-18 -10l-4 8q-2 4 -4.5 8t-4.5 8.5t-4.5 8.5t-4.5 8t-5 8q-8 -14 -16.5 -27.5t-17.5 -26.5zM751 224q0 -14 -7.5 -20.5t-22.5 -6.5h-18h-21q-2 9 -4 20q11 -1 20 -1h17q8 0 12.5 3.5t4.5 10.5
v183h-182v-162q22 32 39 65q-9 15 -18 30.5t-18 31.5l15 8q15 -24 31 -50q6 13 11.5 26.5t9.5 27.5l18 -7q-6 -17 -13 -33.5t-15 -32.5q15 -26 29 -52l-17 -9q-11 20 -22 41q-8 -15 -17 -29l-18 -28l-15 9v-54h-20v237h221v-208z" />
    <glyph glyph-name="uniE66C" unicode="&#xe66c;" 
d="M702 681h-380q-31 0 -60 -10t-52.5 -27.5t-41 -41t-27.5 -52.5t-10 -60v-380q0 -79 56 -135t135 -56h380q79 0 135 56t56 135v380q0 79 -56 135t-135 56zM777 111l-76 -76l-189 189l-189 -189l-76 76l189 189l-189 189l76 76l189 -189l189 189l76 -76l-189 -189z" />
    <glyph glyph-name="uniE66D" unicode="&#xe66d;" 
d="M627 -59l-123 82l-110 -82l-104 77l-115 -75v716h674v-715l-126 79zM468 466q-6 -23 -13 -40h-159v-37h132q-39 -44 -132 -78v-39l21 7q18 6 30.5 10.5t20.5 8.5v-17h53v-2q9 -81 -111 -107v-36q90 13 133 49.5t38 95.5h107v-71q2 -27 -28 -25h-32v-39h57q65 -2 64 62v90
q1 0 6.5 -2t9.5 -3q38 -13 61 -19v37q-83 27 -125 78h125v37h-206q8 18 14 40h173v38h-58q11 20 16 54h-54q-4 -30 -15 -54h-59q1 8 1.5 17.5t0.5 19.5v32h-64v-37v-32h-52q-10 24 -15 54h-57q9 -37 17 -54h-53v-38h153zM534 389q8 -11 16.5 -21t17.5 -18t19 -15.5t20 -13.5
h-192q28 14 49.5 31t35.5 37h34zM534 389z" />
    <glyph glyph-name="uniE66E" unicode="&#xe66e;" 
d="M768 172v128h-320v128h320v128l192 -192zM704 236v-256h-320v-192l-384 192v832h704v-320h-64v256h-512l256 -128v-576h256v192h64z" />
    <glyph glyph-name="uniE66F" unicode="&#xe66f;" 
d="M339 -66q-20 -20 -48.5 -20t-48.5 20l-96 96q-20 20 -20 48.5t20 48.5l125 125l117 117q-39 24 -85.5 18.5t-80.5 -39.5l-173 -173q-40 -40 -40 -96.5t40 -96.5l145 -145q40 -40 96.5 -40t96.5 40l173 173q34 34 39 80.5t-18 85.5zM975 618l-145 145q-16 15 -35.5 25
t-40.5 13t-41.5 0t-40 -13t-35.5 -25l-173 -173q-34 -34 -39.5 -80.5t18.5 -85.5l242 242q13 13 30.5 18t35 0t31.5 -18l96 -96q13 -14 18 -31.5t0 -35t-18 -30.5l-242 -242q26 -15 56 -18t59 7t51 32l173 173q26 26 35.5 61t0 70.5t-35.5 61.5zM327 139l24 -24
q15 -15 36 -15t36 15l274 274q15 15 15 36t-15 36l-24 24q-7 8 -16.5 11.5t-19.5 3.5t-19.5 -3.5t-16.5 -11.5l-274 -274q-8 -7 -11.5 -16.5t-3.5 -19.5t3.5 -19.5t11.5 -16.5z" />
    <glyph glyph-name="uniE670" unicode="&#xe670;" 
d="M691 223q-10 0 -17.5 7.5t-7.5 18t7 18.5l157 157q40 40 40 97q0 11 -1.5 21.5t-5 21t-8 20t-11 18t-14.5 16.5q-16 16 -35.5 26t-40.5 13t-42 0t-40.5 -13t-35.5 -26l-157 -157q-8 -7 -18.5 -7t-18 7.5t-7.5 18t8 17.5l157 157q55 55 133 55t133 -55q18 -17 30.5 -38.5
t19 -45.5t6.5 -49q0 -78 -56 -133l-157 -157q-2 -2 -4 -3.5t-4.5 -2.5t-4.5 -1.5t-5 -0.5zM240 -161q-78 0 -133.5 55.5t-55.5 133.5t55 133l157 157q8 8 18.5 8t18 -7.5t7.5 -18.5t-7 -18l-157 -157q-41 -40 -41 -97t40.5 -97.5t97.5 -40.5t97 41l157 157q7 7 18 7t18 -7
q4 -4 6 -9t2 -9.5t-2 -9.5t-6 -9l-157 -157q-55 -55 -133 -55zM282 454q-11 0 -19 7l-102 102q-4 4 -5.5 9t-1.5 9.5t1.5 9.5t5.5 9q8 7 18.5 7t17.5 -7l103 -103q2 -2 3.5 -4.5t2.5 -5t1 -5.5v-6q0 -2 -1 -5t-2.5 -5.5t-3.5 -4.5q-8 -7 -18 -7zM384 505q-7 0 -13 3.5
t-9.5 9t-3.5 12.5v154q0 11 7.5 18.5t18.5 7.5t18.5 -7.5t7.5 -18.5v-154q0 -10 -7.5 -17.5t-18.5 -7.5zM230 351h-153q-7 0 -13 3.5t-9.5 9.5t-3.5 13q0 5 2 9.5t5.5 8t8.5 5.5t10 2h153q7 0 13 -3t9.5 -9t3.5 -13q0 -4 -1 -7t-2.5 -6t-4 -5.5t-5 -4t-6 -2.5t-7.5 -1z
M794 -58q-11 0 -19 7l-102 102q-7 8 -7 18.5t7.5 18t18 7.5t17.5 -7l103 -103q3 -3 5 -8t2 -10t-2 -9.5t-5 -8.5q-8 -7 -18 -7zM896 146h-154q-10 0 -17.5 7.5t-7.5 18.5q0 4 1 8t3.5 7t5.5 5.5t7 4t8 1.5h154q11 0 18.5 -7.5t7.5 -18.5q0 -4 -1.5 -8t-4 -7t-5.5 -5.5t-7 -4
t-8 -1.5zM588.5 -161q-10.5 0 -18 7.5t-7.5 18.5v153q0 7 3.5 13t9.5 9.5t13 3.5q10 0 17.5 -7.5t7.5 -18.5v-153q0 -11 -7.5 -18.5t-18 -7.5z" />
    <glyph glyph-name="uniE671" unicode="&#xe671;" 
d="M379 19q-15 -16 -37 -16t-37 16l-74 74q-16 15 -16 37t16 37l96 96l90 90q-20 12 -43 14t-45 -5.5t-39 -24.5l-133 -133q-31 -31 -31 -74t31 -74l111 -111q31 -31 74 -31t74 31l133 133q26 25 30 61t-14 66l-186 -186v0zM867 544l-111 111q-31 31 -74 31t-74 -31
l-133 -133q-17 -17 -24.5 -39t-5.5 -45t14 -43l186 186q7 8 17 12t20 4t20 -4t17 -12l74 -74q8 -8 12 -17.5t4 -19.5t-4 -20t-12 -17l-186 -186q30 -18 66 -14t61 30l133 133q31 31 31 74t-31 74v0zM370 176l18 -18q8 -8 18 -10.5t20 0t18 10.5l210 210q8 8 10.5 18t0 20
t-10.5 18l-18 18q-12 12 -28 12t-28 -12l-210 -210q-5 -5 -7.5 -10.5t-3.5 -11.5t0 -12t3.5 -11.5t7.5 -10.5v0zM370 176z" />
    <glyph glyph-name="uniE672" unicode="&#xe672;" 
d="M380 9q-15 -15 -36.5 -15t-36.5 15l-74 74q-10 10 -13.5 23.5t0 26.5t13.5 23l185 185q-30 17 -65.5 13t-60.5 -29l-132 -132q-31 -30 -31 -73t31 -74l110 -110q31 -31 74 -31t73 31l132 132q25 25 29 60.5t-13 65.5zM864 530l-110 110q-31 31 -74 31t-73 -31l-132 -132
q-25 -25 -29 -60.5t14 -65.5l184 185q15 15 36.5 15t36.5 -15l74 -74q10 -10 13.5 -23.5t0 -26.5t-13.5 -23l-185 -185q30 -17 65.5 -13t60.5 29l132 132q20 20 27 46.5t0 53.5t-27 47v0z" />
    <glyph glyph-name="uniE673" unicode="&#xe673;" 
d="M104 44q-6 6 -13.5 3.5t-9.5 -10.5q-22 -72 -61 -213q-2 -8 3 -13t13 -3q26 7 116.5 33t96.5 28q5 1 8 5.5t2.5 9t-3.5 8.5h-1v1l-1 1l-1 1l-1 1h-1v1l-1 1h-1v1l-1 1l-1 1h-1l-1 1v1l-1 1l-1 1l-1 1l-1 1h-1l-1 1l-1 1l-1 1v1l-1 1l-1 1l-1 1l-1 1l-2 2zM123 82
l171 -171l571 570l-172 172zM993 667l-114 114q-12 12 -28.5 12t-28.5 -12l-43 -43l171 -171l43 43q12 12 12 28.5t-12 28.5z" />
    <glyph glyph-name="uniE674" unicode="&#xe674;" 
d="M654 43q-56 26 -10 92l10 14h-3q80 58 120 170q3 -2 6 -3q12 -3 24.5 4t22.5 22.5t15 35.5q8 31 1 56t-25 31q-2 0 -4.5 0.5t-4.5 0.5t-4 -0.5t-4 -1.5q18 319 -286 319q-48 0 -91 -10.5t-82 -35t-65.5 -62t-39.5 -95.5t-7 -131q-9 3 -18 0q-18 -5 -25 -30t1 -56
q5 -20 15 -35.5t22.5 -22.5t24.5 -4q6 2 11 7q4 -10 8 -19.5t9 -19t10 -18.5t10.5 -17.5t11 -16.5t12 -15.5t13 -14.5t13 -13.5t14 -12.5t14.5 -12h-3l2 -3q2 -1 6 -6.5t7 -11t7 -13.5t6 -15t2 -15.5t-3 -15.5t-9.5 -14t-17.5 -12q-6 0 -17.5 -1.5t-45 -7t-64.5 -12.5
t-71 -20.5t-71 -30t-57 -41t-37 -52.5v-61h1010v61q-15 39 -57.5 70.5t-93 48.5t-99 28t-81.5 15z" />
    <glyph glyph-name="uniE675" unicode="&#xe675;" 
d="M922 701h-46q-5 8 -11 12.5t-13 4.5h-55v54q0 15 -10.5 25.5t-24.5 10.5h-482q-6 0 -11.5 -2t-9.5 -5t-7.5 -7.5t-5.5 -10t-2 -11.5v-54h-72q-13 0 -24 -17h-46q-15 0 -27 -3.5t-19.5 -9.5t-7.5 -14q0 -11 16 -18.5t38 -7.5h34v-820q0 -8 3 -14.5t7.5 -11t11 -7.5
t14.5 -3h680q15 0 25.5 10.5t10.5 25.5v820h34q22 0 38 7.5t16 18.5q0 8 -7.5 14t-19.5 9.5t-27 3.5zM401 -13q0 -5 -2.5 -9t-6.5 -6.5t-9 -2.5h-51q-7 0 -12.5 5t-5.5 13v451q0 4 2.5 8.5t6.5 6.5t9 2h51q7 0 12.5 -5t5.5 -12v-451zM578 -13q0 -8 -5.5 -13t-12.5 -5h-52
q-8 0 -13 5t-5 13v451q0 4 2.5 8.5t6.5 6.5t9 2h52q7 0 12.5 -5t5.5 -12v-451zM754 -13q0 -8 -5.5 -13t-12.5 -5h-51q-5 0 -9 2.5t-6.5 6.5t-2.5 9v451q0 7 5 12t13 5h51q7 0 12.5 -5t5.5 -12v-451z" />
    <glyph glyph-name="uniE676" unicode="&#xe676;" 
d="M32 812h410q12 -1 19.5 -8.5t10 -24t3.5 -27.5t0 -34.5t-1 -29.5v-224q0 -7 0.5 -18t0.5 -20v-18q0 -10 -0.5 -18t-2 -16t-4.5 -14t-7 -11t-10 -7q-10 -4 -29 -4.5t-45 0.5t-32 1h-218q-9 0 -31.5 -1t-34 -0.5t-27 3t-24 10t-10.5 19.5v411q9 24 32 31zM88 720v-293h296
v297h-294q-2 -1 -2 -4zM583 812h411q26 -10 31 -37v-399q-2 -9 -5.5 -16t-9.5 -12t-14 -7q-7 -3 -17 -3.5t-21.5 -0.5t-22 0.5t-22.5 1t-20 0.5h-211q-9 0 -33 -1.5t-42 -1t-30 4.5q-8 2 -14 10t-8.5 17t-3.5 24t-1 25.5t0.5 27.5t0.5 26v209q0 10 -1 34t-0.5 36t3 27.5
t10 24t20.5 10.5zM639 720v-293h297v297h-295q-2 -1 -2 -4zM223 634q20 4 37.5 -3t27 -21.5t10.5 -32.5q0 -36 -30 -53.5t-60 -2.5q-16 9 -24.5 26.5t-7 35t14 32.5t32.5 19zM774 634q50 9 68 -32q14 -35 -8 -65q-20 -28 -60 -21q-17 3 -29 15t-15 27.5t0 31.5t15 28.5
t29 15.5zM440 -212h-407q-26 7 -33 32v409q8 25 28 30q12 3 29 3.5t40.5 -1t33.5 -1.5h211q9 0 32.5 1.5t41.5 1.5t30 -4q11 -3 18 -12t9 -25t2.5 -28t-0.5 -34t-1 -30v-216q0 -9 0.5 -23.5t0.5 -24.5v-22q0 -13 -2.5 -21.5t-6 -17t-10.5 -12.5t-16 -5zM88 168v-292h296v296
h-294q-2 0 -2 -4zM1025 224v-114q-2 -10 -1.5 -61.5t0.5 -62.5h-294v66q-6 2 -44 2h-47q-2 -23 -1.5 -132.5t0.5 -133.5h-54q-13 2 -21 10.5t-10.5 24.5t-3 28t0.5 35.5t1 32.5v211q0 9 -0.5 25.5t-1.5 29t0 27t4 23.5q1 4 3.5 7.5t5.5 6.5t7 5t8 3t9.5 2t10 1t11.5 0.5
t11.5 0.5t12 -0.5t12.5 -0.5h199v-180h93q0 16 -0.5 91t1.5 89q23 1 42 0.5t32 -9.5t14 -27zM230 84q34 3 55 -23t9 -60q-7 -18 -23.5 -28t-34.5 -8.5t-33.5 9.5t-23 26.5t-1.5 41.5q2 8 6.5 15t10.5 12.5t15 9.5t20 5zM830 -212h-100q1 19 0.5 35t-0.5 36t2 35h98v-106z
M1025 -106v-70q-3 -14 -11 -23t-22 -13h-70v35v36q0 20 1 35h102zM1025 -106z" />
    <glyph glyph-name="uniE677" unicode="&#xe677;" 
d="M512 510q-59 0 -116.5 -22t-97.5 -52.5t-72 -61.5t-48 -52l-15 -22q5 -9 16 -23t46.5 -50t73.5 -63.5t96 -50.5t117 -23t116.5 22t97.5 52.5t72 61.5t48 52l15 22q-1 3 -4.5 7.5t-15 19t-24 28t-32.5 32.5t-41 35.5t-48.5 33t-55 28t-61 19t-67.5 7.5zM512 162
q-58 0 -98.5 40.5t-40.5 98t40.5 98.5t98.5 41t98.5 -41t40.5 -98q0 -38 -18.5 -70t-50.5 -50.5t-70 -18.5zM442 300q0 14 5.5 27t14.5 22q21 21 50 21q9 0 17.5 -2.5t16.5 -7t15 -11.5q20 -20 20 -48.5t-20.5 -49t-48.5 -20.5q-14 0 -27 5.5t-23 14.5q-6 7 -10.5 15
t-7 16.5t-2.5 17.5zM442 300z" />
    <glyph glyph-name="uniE678" unicode="&#xe678;" 
d="M729 621h-434q-44 0 -76 -31.5t-32 -75.5v-428q0 -44 32 -75.5t76 -31.5h434q44 0 76 31.5t32 75.5v428q0 21 -9 41t-23 34.5t-34 23t-42 8.5zM346 579h332v-238h-332v238zM795 86q0 -27 -19.5 -46t-46.5 -19h-434q-27 0 -46.5 19t-19.5 46v427q0 14 5.5 26t14.5 21
t21 14t25 5h9v-280h416v280h9q27 0 46.5 -19t19.5 -46v-428zM574 517h42v-140h-42v140zM574 517z" />
    <glyph glyph-name="uniE679" unicode="&#xe679;" 
d="M512 785q-66 0 -129 -16.5t-119.5 -49.5t-102.5 -80q-71 -69 -108.5 -160t-37.5 -191t37.5 -190.5t108.5 -160.5q46 -47 102.5 -79.5t119.5 -49.5t129 -17q100 0 191 37.5t160 108.5q70 70 108 161t38 190q0 66 -16.5 129t-49.5 119.5t-80 102.5q-69 71 -160 108.5
t-191 37.5zM820 -20q-62 -61 -141.5 -94t-166.5 -33t-166.5 33t-141 94.5t-94.5 141t-33 166.5t33 166.5t94.5 141t141 94.5t166.5 33q44 0 86 -8.5t81 -24.5t74.5 -40t66.5 -54q61 -62 94 -141.5t33 -166.5q0 -174 -120 -299q-4 -5 -7 -9zM667 474h-310q-13 0 -22 -9
t-9 -22v-310q0 -4 0.5 -7.5t2 -6.5t3.5 -5l6 -6q2 -2 5 -3.5t6.5 -2t7.5 -0.5h310q9 0 16 4t11 11t4 16v310q0 13 -9 22t-22 9zM636 164h-248v248h248v-248z" />
    <glyph glyph-name="uniE67A" unicode="&#xe67a;" 
d="M557 -8h-174v37h174q83 0 141.5 59t58.5 142q0 54 -26.5 100t-73 73t-100.5 27h-295v37h295q98 0 168 -69.5t70 -167.5q0 -106 -79 -177q-68 -61 -159 -61zM389 289l-160 160l160 159l27 -26l-134 -133l134 -134zM389 289z" />
    <glyph glyph-name="uniE67B" unicode="&#xe67b;" 
d="M535 142q4 -31 16 -50q14 18 19 50h-35zM577 666h-130q-34 0 -57.5 -24t-23.5 -57v-570q0 -22 10.5 -40.5t29.5 -29.5t41 -11h130q34 0 57.5 24t23.5 57v570q0 16 -6.5 31t-17 26t-25.5 17.5t-32 6.5zM487 236v127h13v-127h27v127h13v-127h50v-12h-152v12h49zM444 328
l12 5q6 -15 12 -31l12 -32l-12 -6q-6 16 -11.5 32t-12.5 32zM557 263l-11 5q5 11 9.5 22t8.5 21t8 21l12 -5q-7 -19 -14 -34.5t-13 -29.5zM536 515h12v-95h-12v95zM559 395q10 0 10 9v125h12v-128q0 -19 -19 -19h-24v4l-2 6v4q16 -1 23 -1zM480 530h15l-2 -3q19 -18 37 -37
l-8 -9q-6 6 -11.5 12t-11.5 12l-12 12q-5 -8 -10.5 -15t-10.5 -13.5t-11 -11.5h64q-1 -21 -2 -30q0 -23 -21 -23h-4h-4h-6h-6q0 4 -0.5 7t-1.5 6q10 -2 20 -2q11 0 12 14v7q0 5 1 10h-41v-62q0 -4 2 -6t7 -2h25q6 0 9.5 2t4.5 6q2 7 3 18l12 -4q-1 -11 -4 -19q-1 -5 -4 -8
t-7.5 -4.5t-10.5 -1.5h-30q-5 0 -8.5 1t-6 3.5t-3.5 6t-1 7.5v72l-10 -8l-4 6q-2 3 -3 5q25 19 43 52zM487 50h-11v59h-17q-1 -37 -13 -61l-2 4l-4 2q-1 2 -3 3q11 19 11 59v79h11v-42h16v46h11v-46h13v-10h-40v-25h28v-68zM582 50q-20 12 -31 24q-13 -13 -35 -26
q-4 6 -8 11q23 12 36 24q-16 22 -20 59h-7v-24q0 -43 -20 -70q-2 3 -4 5.5t-4 4.5q10 16 13 30q2 7 3 16.5t1 21.5v62q45 0 77 6l4 -11l-20 -2q-10 -1 -19 -2t-17 -1.5t-14 -0.5v-25h65v-9q-3 -19 -9 -34t-15 -26q11 -12 33 -21q-6 -7 -9 -12z" />
    <glyph glyph-name="uniE67C" unicode="&#xe67c;" 
d="M572 -37h-120q-31 0 -53 22t-22 53v524q0 31 22 53t53 22h120q31 0 53 -22t22 -53v-524q0 -20 -10 -37.5t-27.5 -27.5t-37.5 -10zM464 73q10 21 11 53h15v-51h9v60h-24v21h35v9h-11v41h-10v-41h-14v37h-10v-69q0 -18 -2 -31t-7 -21q5 -4 8 -8zM572 431v10h-41v31h-11v-77
h-29v53h-11v-53h-18v-10h123v10h-54v36h41zM462 327q11 -28 21 -57l11 5q-11 30 -22 56zM575 330q-10 -27 -23 -56l9 -4q12 23 25 55zM547 245v113h-12v-113h-24v113h-11v-113h-44v-10h135v10h-44zM531 509l3 3h-15q-23 -32 -65 -51q3 -3 5 -5.5t3 -5.5q20 11 35.5 23.5
t26.5 26.5q23 -28 60 -47q4 8 7 12q-19 8 -34 19t-26 25zM563 104q15 20 20 52v8h-57v23q12 0 27.5 1t34.5 4l-3 10q-29 -5 -69 -6v-54q0 -21 -3 -34q-1 -6 -4 -13t-7 -13q3 -4 6 -9q18 24 18 62v20h6q5 -32 18 -51q-11 -11 -32 -21q2 -3 4 -5.5t3 -4.5q20 11 31 23
q10 -11 27 -21q2 2 4 4.5t5 5.5q-20 8 -29 19zM542 155h31q-2 -13 -6.5 -24t-10.5 -19q-11 17 -14 43z" />
    <glyph glyph-name="uniE67D" unicode="&#xe67d;" 
d="M181 812v-1012l325 247l337 -259v1024h-662zM605 266h-181l8 48h61l32 186l-64 -14l9 49l127 26l-44 -247h60z" />
    <glyph glyph-name="uniE67E" unicode="&#xe67e;" 
d="M506 47l-324 -246v1010h660v-1022zM626 538.5q-21 21.5 -64 21.5q-24 0 -46 -6t-43 -18l-10 -54q41 30 78 30q44 0 37 -41q-2 -10 -6 -18.5t-11 -17.5q-13 -17 -44 -42l-97 -80l-9 -47h189l9 50h-119v1l70 55q71 55 80 106q7 39 -14 60.5z" />
    <glyph glyph-name="uniE67F" unicode="&#xe67f;" 
d="M506 47l-325 -247v1012h662v-1024zM616 542q-7 6 -17 10.5t-21.5 6.5t-25.5 2q-40 0 -73 -16l-9 -50q31 19 60 19q45 0 39 -37q-7 -39 -66 -39h-24l-8 -47h26q31 0 46 -10.5t12 -31.5q-4 -20 -20 -31q-8 -5 -18.5 -8t-22.5 -3q-5 0 -10 1h-8q-5 1 -9 2l-8 2l-8 4
q-4 1 -7.5 3t-7 4.5t-6.5 5.5l-9 -54q24 -14 69 -14q13 0 24.5 1.5t22 4t20 7t18.5 10.5q17 12 27.5 28t14.5 37q2 13 -0.5 24.5t-9.5 20.5q-5 7 -12 11.5t-15 7t-18 4.5v1q60 16 70 71q6 34 -16 53z" />
    <glyph glyph-name="uniE680" unicode="&#xe680;" 
d="M512 -83q-104 0 -192.5 51t-139.5 139.5t-51 192.5t51 192.5t139.5 139.5t192.5 51q39 0 77 -7.5t72 -22t65 -35.5t57 -47t47 -57t35.5 -65t22 -72t7.5 -77q0 -104 -51 -192.5t-139.5 -139.5t-192.5 -51zM664 115v13v347v22v16q0 6 -3 11t-8 8t-11 3h-260
q-9 0 -15.5 -6.5t-6.5 -15.5v-27v-11v-347v-24v-41q0 -9 6.5 -15.5t15.5 -6.5h38h81h22h81h38q9 0 15.5 6.5t6.5 15.5v52zM382 467h260v-339h-260v339zM472 219l13 -11l10 12l110 131l-23 20l-100 -120l-47 45l-21 -22zM549 491q-2 0 -4 0.5t-3 2.5q-3 3 -3 7q0 2 0.5 4
t2.5 3q7 7 14 0q2 -1 2.5 -3t0.5 -4l-3 -7q-1 -2 -3 -2.5t-4 -0.5zM510 490h-28q-4 0 -7 3.5t-3 7.5q0 10 10 10h28q5 0 8 -3t3 -7q-2 -9 -11 -11zM512 110q2 0 4.5 -0.5t4.5 -1.5t4 -2.5t3.5 -3t3 -3.5t2.5 -4t1.5 -4.5t0.5 -4.5q0 -3 -1 -6.5t-2.5 -6t-3.5 -4.5t-5 -3.5
t-6 -2.5t-6 -1q-10 0 -17 7t-7 17t7 17t17 7z" />
    <glyph glyph-name="uniE681" unicode="&#xe681;" 
d="M648 676h211q31 0 31 -30v-181q0 -9 6 -15.5t15 -9t20 -2.5q3 0 6 0.5t6 1.5t5.5 2.5t5 3.5t4.5 4l2 6q2 2 3 4.5t1.5 6t0.5 6.5v175q0 43 -30 73.5t-74 30.5h-211q-14 0 -24 -10t-10 -25t9 -28t23 -13zM347 -76h-182q-15 0 -23 7.5t-8 22.5v166q0 14 -13 28t-28 14
q-3 0 -6 -0.5t-6 -1.5t-5.5 -2.5t-4.5 -3.5t-3 -4l-4 -6q-1 -2 -2 -5t-1.5 -6t-0.5 -6v-173q0 -43 30.5 -73t73.5 -30h173q14 0 24 10t10 24q2 14 -4.5 26.5t-19.5 12.5zM94.5 438q14.5 0 28 14t13.5 28v167q0 15 7.5 23t22.5 8h166q4 0 9 1.5t10 4t9 6.5t7 8.5t5 10t2 10.5
q0 7 -3 13.5t-7.5 10.5t-11 6.5t-13.5 2.5h-175q-43 0 -73.5 -30.5t-30.5 -73.5v-173q0 -15 10 -26t24.5 -11zM929.5 162q-14.5 0 -28 -14t-13.5 -28v-166q0 -30 -30 -30h-210q-14 0 -23 -12.5t-9 -28.5q0 -15 10 -25t24 -10h208q43 0 73 30.5t30 73.5v175q2 14 -7.5 24.5
t-24 10.5zM972 331h-920q-15 0 -26 -11t-11 -26.5t11 -26.5t26 -11h920q10 0 18.5 5t13.5 14t5 19q0 15 -11 26t-26 11z" />
    <glyph glyph-name="uniE682" unicode="&#xe682;" 
d="M512 -82q-103 0 -191 51.5t-139.5 139.5t-51.5 191q0 39 8 76.5t22.5 71.5t35.5 65t46.5 56.5t56.5 46.5t65 35.5t71.5 22.5t76.5 8q103 0 191 -51.5t139.5 -139.5t51.5 -191t-51.5 -191t-139.5 -139.5t-191 -51.5zM472 514l9 -287h66l10 287h-85zM549 170
q-14 13 -34.5 13t-34.5 -13t-14 -31t14 -31.5t34 -13.5q10 0 19 3.5t16 9.5q14 13 14 32q0 18 -14 31z" />
    <glyph glyph-name="uniE683" unicode="&#xe683;" 
d="M512 -80q-103 0 -190.5 51t-138.5 138.5t-51 190.5t51 190.5t138.5 138.5t190.5 51q77 0 147.5 -30t121.5 -81t81 -121.5t30 -147.5q0 -150 -103 -260q-101 -108 -248 -119q-15 -1 -29 -1zM380 417q-18 0 -30.5 -13t-12.5 -31t12.5 -31t31 -13t31 13t12.5 31q0 29 -26 40
q-9 4 -18 4zM346 163q-11 -9 -1 -20q3 -3 6.5 -4.5t7.5 -0.5t7 4q2 2 5.5 4.5t13.5 9.5t20.5 13t25.5 13t31 11t34.5 7t38.5 1t40 -8t41 -19t42 -32q4 -4 10 -4t10 4.5t4 10.5t-4 11q-33 30 -68.5 46.5t-66 19.5t-62 -2.5t-53 -15t-42.5 -22t-28.5 -18t-11.5 -9.5z
M643.5 417q-18.5 0 -31 -13t-12.5 -31q0 -12 5.5 -22t16 -16t22.5 -6q18 0 30.5 13t12.5 31t-12.5 31t-31 13z" />
    <glyph glyph-name="uniE684" unicode="&#xe684;" 
d="M512 680q-103 0 -190.5 -51t-138.5 -138.5t-51 -190.5t51 -190.5t138.5 -138.5t190.5 -51t190.5 51t138.5 138.5t51 190.5q0 62 -19.5 120t-54.5 104.5t-82 82t-104.5 54.5t-119.5 19zM489 99l-26 -31l-31 27l-144 137l53 53l114 -110l247 296l57 -49zM489 99z" />
    <glyph glyph-name="uniE685" unicode="&#xe685;" 
d="M145 614q-14 0 -26 -7t-19 -19t-7 -26q0 -22 15.5 -37t37 -15t37 15t15.5 37q0 14 -7 26t-19.5 19t-26.5 7zM145 352q-10 0 -20 -4t-17 -11t-11 -16.5t-4 -20.5q0 -14 7 -26t19 -19t26 -7q22 0 37.5 15t15.5 37q0 14 -7 26t-19.5 19t-26.5 7zM145 90q-21 0 -36.5 -15
t-15.5 -37t15.5 -37t36.5 -15q14 0 26.5 7t19.5 19t7 26t-7 26t-19.5 19t-26.5 7zM355 510h524q10 0 20 4t17 11t11 16.5t4 20.5q0 22 -15.5 37t-36.5 15h-524q-22 0 -37.5 -15t-15.5 -37q0 -34 31 -48q11 -4 22 -4zM879 352h-524q-22 0 -37.5 -15t-15.5 -37q0 -9 3 -17
t7.5 -14t11 -11t14.5 -7.5t17 -2.5h524q10 0 20 4t17 11t11 16.5t4 20.5q0 22 -15.5 37t-36.5 15zM879 90h-524q-9 0 -17 -2.5t-14.5 -7.5t-11 -11t-7.5 -14t-3 -17q0 -14 7 -26t19.5 -19t26.5 -7h524q8 0 16 2.5t14.5 7.5t11.5 11t7.5 14t2.5 17q0 11 -4 20.5t-11 16.5
t-17 11t-20 4zM879 90z" />
    <glyph glyph-name="uniE686" unicode="&#xe686;" 
d="M769 303q-6 0 -9.5 2t-5.5 5q-1 1 -1.5 2t-1 2.5t-1.5 2.5q-1 4 -1 9h-22q0 -10 3 -17.5t8.5 -13t12.5 -8.5q4 -1 8.5 -2t9.5 -1q8 0 16 3q2 1 4.5 2t4.5 2t4 3q6 5 9.5 12t3.5 16q0 5 -1.5 9t-4.5 7q-1 2 -2.5 3.5t-3.5 2.5l-4 2q-2 1 -4 1v1q8 2 12 8q1 2 1.5 3.5
t1.5 3.5v4q1 2 1 4q0 8 -4 14q-2 2 -4 4.5t-4.5 5t-5.5 4t-6.5 2.5t-7 1.5t-6.5 0.5q-9 0 -16 -3t-12 -8q-3 -3 -5 -6t-3 -7q-3 -7 -3 -16h21q0 5 1 8.5t4 6.5q4 6 13 6q6 0 11 -4q2 -2 3.5 -5t1.5 -7q0 -2 -0.5 -4t-2.5 -3q-2 -3 -5.5 -4.5t-8 -2t-7.5 -0.5v-16h9q4 0 8 -2
q2 -1 3.5 -2t2.5 -3q3 -3 3 -10q0 -8 -5 -13q-2 -1 -3.5 -2t-3 -1.5t-3.5 -1t-3 -0.5v0zM500 555h23v114h-18l-4 -11q-3 -4 -7.5 -7t-10.5 -4h-3q-2 0 -4 -0.5t-4 0.5v-18h28v-74v0zM265 455l-2 -2q-1 -1 -2.5 -2t-2.5 -2q-2 -1 -4 -2.5t-4 -2.5q-6 -5 -14 -10
q-6 -5 -11 -11t-8 -13q-1 -2 -1 -5l-2 -6v-6h83v20h-53q1 2 2.5 3.5t3.5 3t3 3.5l12 8q5 4 11 8l10 8q3 3 4.5 5.5t3.5 5.5q1 3 1.5 5t0.5 5v5q0 9 -3 15q-1 4 -3 6.5t-5 4.5q-5 5 -12 7q-3 1 -5 2h-6q-2 1 -4 1q-5 0 -9.5 -1t-8.5 -3q-8 -3 -13 -9q-1 -2 -2 -3t-2 -2.5
t-1 -2.5l-2 -4q0 -1 -1 -3q-2 -8 -2 -18h22v3v2q0 2 1 4q1 5 3 9q0 1 1 2l2 2l2 2q4 2 9 2q7 0 12 -4.5t5 -13.5v-3l-2 -2q0 -2 -1 -3.5t-1.5 -3t-1.5 -2.5t-3 -2v0zM847 239h-153v-308h154q9 0 18 3.5t15 10t10 15.5t4 18v213q0 20 -14 34t-34 14v0zM653 474q0 19 -14 33
t-33 14h-188q-19 0 -33 -14t-14 -33v-543h282v306v237v0zM129 312v-334q0 -19 14 -33t33 -14h154v429h-153q-13 0 -24 -6.5t-17.5 -17.5t-6.5 -24v0zM129 312z" />
    <glyph glyph-name="uniE687" unicode="&#xe687;" 
d="M512 876q-100 0 -191 -39t-157 -105t-105 -157t-39 -191t39 -191t105 -157t157 -105t191 -39t191 39t157 105t105 157t39 191t-39 191t-105 157t-157 105t-191 39zM512 -80q-95 0 -181 36.5t-148 98.5t-99 148.5t-37 180.5t37 180.5t99 148.5t148 98.5t180.5 36.5
t180.5 -36.5t148.5 -98.5t99 -148.5t36.5 -180.5q0 -42 -7 -83.5t-21.5 -79t-34.5 -72t-46 -64.5t-56 -56t-65 -46t-72 -34.5t-78.5 -21.5t-83.5 -7zM770 504l-69 1v69q0 8 -6 14t-14 6h-430q-8 0 -13.5 -6t-5.5 -14v-328q0 -9 5.5 -14.5t13.5 -5.5h58v-37q0 -8 6 -13.5
t14 -5.5h441q8 0 14 5.5t6 13.5v296q0 8 -6 13.5t-14 5.5zM309 485v-222h-13q-9 0 -14.5 6t-5.5 14v247q0 8 5.5 14t14.5 6h347q5 0 9.5 -3t7 -7.5t2.5 -9.5v-25h-333q-3 0 -5.5 -0.5t-4.5 -2.5l-4 -2q-2 -2 -3.5 -4.5t-2 -5t-0.5 -5.5zM756 379q0 -8 -5.5 -13.5t-14.5 -5.5
h-373q-9 0 -14.5 5.5t-5.5 13.5v39q0 5 2.5 10t7 7.5t10.5 2.5h373q9 0 14.5 -6t5.5 -14v-39z" />
    <glyph glyph-name="uniE688" unicode="&#xe688;" 
d="M694 416h-1h-376q-4 0 -7.5 1.5t-6.5 4t-4.5 6.5t-1.5 8v38q0 9 6 14.5t14 5.5h376q5 0 9.5 -2.5t7.5 -7t3 -10.5v-38q0 -8 -5 -13q18 8 38 9v110q0 8 -5.5 13.5t-14.5 5.5l-108 1h-335q-8 0 -13.5 -6t-5.5 -14v-251l-1 -10v-36q0 -9 6 -14.5t14 -5.5h353q-12 29 -12 61
q0 41 19 76t51 54zM754 390q-20 0 -38.5 -7.5t-31.5 -21t-21 -31.5t-8 -38t8 -38.5t21 -32t31.5 -21t38.5 -7.5t38.5 7.5t31.5 21t21 32t8 38.5q0 26 -13 49t-36 36t-50 13zM753 212q-33 0 -56 23t-23 56t23 56.5t56 23.5t56.5 -23.5t23.5 -56.5t-23.5 -56t-56.5 -23z
M512 878q-101 0 -192.5 -39t-157.5 -105t-105 -157.5t-39 -192.5t39 -192.5t105 -157.5t157.5 -105t192.5 -39t192.5 39t157.5 105t105 157.5t39 192.5t-39 192.5t-105 157.5t-157.5 105t-192.5 39zM512 -83q-95 0 -181.5 37t-149 99.5t-99.5 149t-37 181.5q0 48 9.5 94
t27 87.5t43 79.5t57 69t69.5 57t79 43.5t87.5 27t94.5 9.5q95 0 181.5 -37t149 -99.5t99.5 -149t37 -181.5q0 -54 -12.5 -106.5t-35.5 -98.5t-55 -86.5t-72.5 -72.5t-86.5 -55t-98.5 -35.5t-106.5 -12.5zM785 292h-27v33q0 2 -1 3t-3 2l-4 2q-2 1 -4 1q-3 0 -7 -2.5t-4 -5.5
v-46q0 -3 4 -6t7 -3h39q1 0 2.5 1t2.5 2t1.5 3t0.5 3q0 4 -2 8.5t-5 4.5z" />
    <glyph glyph-name="uniE689" unicode="&#xe689;" 
d="M512 880q-101 0 -193 -39t-158.5 -105.5t-105.5 -158.5t-39 -193q0 -67 17.5 -131.5t49.5 -119t78 -100.5t100.5 -78t119 -49.5t131.5 -17.5q101 0 193 39t158.5 105.5t105.5 158.5t39 193t-39 193t-105.5 158.5t-158.5 105.5t-193 39zM512 -85q-96 0 -182.5 37
t-149.5 100t-100 150t-37 182t37 182t100 150t149.5 100t182 37t182.5 -37t150 -100t100 -150t37 -182q0 -194 -137.5 -331.5t-331.5 -137.5zM508 306v-128h81v168l-64 -54zM240 178h80v131l-80 -64v-67zM374 349v-171h81v171l-41 34zM686 534l-164 -134l-108 90l-174 -137
v-61l174 138l111 -91l198 161l54 -50v144h-154zM643 178h80v279l-80 -68v-211z" />
    <glyph glyph-name="uniE68A" unicode="&#xe68a;" 
d="M257 314v-325h153v325l-76 64zM2 -11h153v248l-153 -121v-127zM767 390v-401h153v529zM512 231v-242h153v319l-121 -102zM1022 779h-293l121 -115l-313 -255l-203 173l-332 -262v-114l332 261l210 -172l376 306l102 -96v274zM1022 779z" />
    <glyph glyph-name="uniE68B" unicode="&#xe68b;" 
d="M116 -48h162v162h-162v-162zM314 -48h180v162h-180v-162zM116 150h162v180h-162v-180zM314 150h180v180h-180v-180zM116 366h162v162h-162v-162zM530 -48h180v162h-180v-162zM314 366h180v162h-180v-162zM746 -48h162v162h-162v-162zM530 150h180v180h-180v-180zM332 636
v162q-1 8 -5 13q-6 5 -13 5h-36h-4l-2 -2q-2 0 -3.5 -1t-3.5 -2q-5 -6 -5 -13v-162q0 -2 0.5 -4.5t2 -4.5t2.5 -4q6 -5 13 -5h36q7 0 13 5q2 3 3.5 6t1.5 7zM746 150h162v180h-162v-180zM530 366h180v162h-180v-162zM746 366h162v162h-162v-162zM764 636v162q0 4 -1.5 7
t-3.5 6q-6 5 -13 5h-36q-4 0 -7 -1.5t-6 -3.5q-1 -2 -2.5 -4t-2 -4t-0.5 -5v-162q0 -7 5 -13q3 -2 6 -3.5t7 -1.5h36q7 0 13 5q2 3 3.5 6t1.5 7zM980 672v-720q0 -29 -21.5 -50.5t-50.5 -21.5h-792q-29 0 -50.5 21.5t-21.5 50.5v720q0 29 21.5 50.5t50.5 21.5h72v54
q0 37 26.5 63.5t63.5 26.5h36q37 0 63.5 -26.5t26.5 -63.5v-54h216v54q0 37 26.5 63.5t63.5 26.5h36q37 0 63.5 -26.5t26.5 -63.5v-54h72q29 0 50.5 -21.5t21.5 -50.5zM980 672z" />
    <glyph glyph-name="uniE68C" unicode="&#xe68c;" 
d="M512 -109q-101 0 -192 39t-157 105t-105 157t-39 192t39 192t105 157t157 105t192 39t192 -39t157 -105t105 -157t39 -192t-39 -192t-105 -157t-157 -105t-192 -39v0zM512 754q-101 0 -186 -49.5t-134.5 -134.5t-49.5 -186t49.5 -186t134.5 -134.5t186 -49.5t186 49.5
t134.5 134.5t49.5 186t-49.5 186t-134.5 134.5t-186 49.5v0zM697 322h-185q-4 0 -7.5 0.5t-6.5 1t-6.5 1.5t-6.5 2.5t-5.5 3.5t-5.5 4.5t-5 4.5q-18 18 -18 44v184q0 26 17.5 44t43.5 18t44 -18t18 -44v-123h123q9 0 16.5 -2t14 -6t12.5 -10q18 -17 18 -43t-18 -44t-43 -18
v0zM697 322z" />
    <glyph glyph-name="uniE68D" unicode="&#xe68d;" 
d="M782 553q-160 -127 -173 -143v123q0 11 -7 18t-17 7h-339q-7 0 -12.5 -3t-8.5 -9t-3 -13v-298q0 -11 7 -18t17 -7h339q10 0 17 7t7 18v122q4 -4 23 -20.5t43.5 -37t49 -40.5t40.5 -33l17 -14q5 0 8.5 0.5t6 1.5t3.5 2t1.5 4t0.5 5v8v9v278v10v8q0 2 -0.5 5.5t-1.5 4.5
t-3.5 2.5t-6 2t-8.5 0.5zM782 553z" />
    <glyph glyph-name="uniE68E" unicode="&#xe68e;" 
d="M833 161q0 -9 -2.5 -18t-7.5 -16.5t-11.5 -13t-14.5 -8t-17 -2.5h-536q-14 0 -26.5 8t-19.5 21.5t-7 28.5v446q0 10 2.5 18.5t7.5 16t11.5 13t14.5 8t17 2.5h535q11 0 21 -4.5t17 -12.5t11.5 -18.5t4.5 -22.5v-446v0zM244 619q-4 0 -7.5 -3.5t-3.5 -7.5v-447
q2 -10 11 -11h535q5 0 8 3t3 8v446q0 5 -3 8.5t-8 3.5h-535v0zM341 431q-18 0 -32.5 9.5t-23 25.5t-8.5 35q0 29 18.5 50t45 21t45.5 -20.5t19 -49.5q0 -15 -5 -28t-13.5 -22.5t-20.5 -15t-25 -5.5v0zM747 196h-470v71l107 118l53 -59l172 187l139 -152v-165h-1v0zM747 196z
" />
    <glyph glyph-name="uniE68F" unicode="&#xe68f;" 
d="M735 470h-147q-4 0 -8 1t-7 3.5t-5 5.5t-3.5 6.5t-1.5 7.5t1.5 8t3.5 7t5 5t7 3.5t8 1.5h147q6 0 12 -3.5t9 -9t3 -12.5q0 -10 -7 -17t-17 -7zM759 396q0 5 -2 9.5t-5 8t-7.5 5.5t-9.5 2h-147q-7 0 -12.5 -3.5t-9 -9t-3.5 -12.5q0 -10 7.5 -17t17.5 -7h147q10 0 17 7
t7 17zM759 298q0 7 -3 12.5t-9 9t-12 3.5h-147q-7 0 -12.5 -3.5t-9 -9t-3.5 -12.5q0 -10 7.5 -17t17.5 -7h147q10 0 17 7t7 17zM759 200q0 5 -2 9.5t-5 8t-7.5 5.5t-9.5 2h-443q-7 0 -12.5 -3.5t-8.5 -9t-3 -12.5q0 -10 7 -17t17 -7h443q4 0 7.5 1t6.5 3.5t5.5 5.5t3.5 6.5
t1 7.5zM519 505q0 6 -5 10.5t-11 4.5h-218q-6 0 -10.5 -4.5t-4.5 -10.5v-218q0 -3 1.5 -6t3.5 -5t4.5 -3t5.5 -1h218q4 0 7.5 2t6 5.5t2.5 7.5v218zM781 568h-538v-417q0 -10 7 -17t17 -7h490q10 0 17 7t7 17v417zM830 617v-466q0 -30 -21.5 -51.5t-51.5 -21.5h-490
q-30 0 -51.5 21.5t-21.5 51.5v466q0 30 21.5 51.5t51.5 21.5h490q30 0 51.5 -21.5t21.5 -51.5zM830 617z" />
    <glyph glyph-name="uniE690" unicode="&#xe690;" 
d="M191 94h553v-77h-553v77v0zM191 171h160l356 309l-159 154l-317 -308zM587 672l157 -152l89 76l-150 155zM587 672z" />
    <glyph glyph-name="uniE691" unicode="&#xe691;" 
d="M513 71q-69 0 -127.5 30.5t-92.5 83t-34 114.5v204h43v-204q0 -76 62 -130t149 -54q57 0 105 24.5t76.5 67t28.5 92.5v204h44v-204q0 -94 -74.5 -161t-179.5 -67zM513 199q-66 0 -113 47t-47 113v284q0 43 21.5 79.5t58 58t80.5 21.5q66 0 112.5 -46.5t46.5 -112.5v-284
q0 -26 -8 -50.5t-23 -44t-34.5 -34.5t-43.5 -23t-50 -8zM488 59h49v-46h82v-44h-82v-22h-49v22h-82v44h82v46z" />
    <glyph glyph-name="uniE692" unicode="&#xe692;" 
d="M590 61q19 -49 -27 -112q-20 -27 -49 -49.5t-60 -34.5q-20 -8 -39.5 -10t-34.5 2q-35 6 -47 36q-8 24 0 52t29 56q43 62 102 85q56 22 84 14l-228 579l24 9q5 -12 11 -21t16 -20.5t24.5 -20t32.5 -13.5q101 -25 154 -48q91 -40 118 -110q7 -18 11 -38.5t5 -40.5
q20 -15 34 -33t23 -41q28 -70 5 -151l-14 -6q8 23 7 66t-12 68q-10 22 -18 34.5t-22 24t-35 21.5q-22 9 -61.5 14.5t-90.5 9.5t-71 7zM679 438q-12 27 -36 45t-62 35q-24 10 -57 17t-61.5 10t-64.5 5q11 -25 35 -47.5t51 -36t54 -21.5q46 -11 72 -19t53 -20q14 -6 33 -17
q-2 7 -4 13l-4 14q-2 6 -4.5 12t-4.5 10z" />
    <glyph glyph-name="uniE693" unicode="&#xe693;" horiz-adv-x="1188" 
d="M848 626v2h-514v-2q-91 -2 -168 -48t-121.5 -123.5t-44.5 -169.5q0 -68 26.5 -130.5t71 -108t106 -73t130.5 -28.5h3h2h1h2h2h500h1h2q92 0 170.5 45.5t124 124t45.5 170.5q0 56 -17 107.5t-48.5 93.5t-73 73.5t-93 49t-107.5 17.5z" />
    <glyph glyph-name="uniE694" unicode="&#xe694;" 
d="M701 704q0 34 23.5 57.5t57 23.5t57 -23.5t23.5 -57.5v-808q0 -34 -23.5 -57.5t-57 -23.5t-57 23.5t-23.5 57.5v808zM162 704q0 34 23.5 57.5t57.5 23.5q16 0 31 -6.5t26 -17t17 -25.5t6 -32v-808q0 -34 -23.5 -57.5t-56.5 -23.5q-22 0 -41 10.5t-29.5 29.5t-10.5 41v808
z" />
    <glyph glyph-name="uniE695" unicode="&#xe695;" 
d="M287 628v-676l471 338z" />
    <glyph glyph-name="uniE696" unicode="&#xe696;" 
d="M741 649q25 0 43 -22t18 -53v-548q0 -21 -8 -38.5t-22.5 -27.5t-30.5 -10h-31q-17 0 -31 10t-22.5 27.5t-8.5 38.5v548q0 31 18 53t44 22h31zM314 649q13 0 24.5 -6t19.5 -16t13 -24t5 -29v-548q0 -32 -18 -54t-44 -22h-31q-25 0 -43 22t-18 54v548q0 20 8 37.5
t22.5 27.5t30.5 10h31z" />
    <glyph glyph-name="uniE697" unicode="&#xe697;" 
d="M787 63h-183q-19 0 -32.5 13.5t-13.5 32.5v183q0 13 6 23.5t16.5 16.5t23.5 6h183q12 0 22.5 -6t17 -16.5t6.5 -23.5v-183q0 -19 -13.5 -32.5t-32.5 -13.5zM787 430h-183q-19 0 -32.5 13.5t-13.5 32.5v183q0 12 6 22.5t16.5 17t23.5 6.5h183q9 0 17.5 -4t14.5 -10
t10 -14.5t4 -17.5v-183q0 -19 -13.5 -32.5t-32.5 -13.5zM420 63h-183q-19 0 -32.5 13.5t-13.5 32.5v183q0 13 6.5 23.5t17 16.5t22.5 6h183q13 0 23.5 -6t16.5 -16.5t6 -23.5v-183q0 -12 -6 -22.5t-16.5 -17t-23.5 -6.5zM420 430h-183q-9 0 -17.5 3.5t-14.5 9.5t-10 14.5
t-4 18.5v183q0 19 13.5 32.5t32.5 13.5h183q19 0 32.5 -13.5t13.5 -32.5v-183q0 -19 -13.5 -32.5t-32.5 -13.5z" />
    <glyph glyph-name="uniE698" unicode="&#xe698;" 
d="M512 704q-87 0 -160.5 -43t-116.5 -116.5t-43 -160.5q0 -65 25.5 -124.5t68 -102t102 -68t124.5 -25.5q44 0 85.5 11.5t76.5 32t64.5 50t50 64.5t32 76.5t11.5 85.5q0 87 -43 160.5t-116.5 116.5t-160.5 43zM512 98q-76 0 -142.5 38.5t-105.5 104.5t-38 143
q1 121 85 203.5t201 82.5t201.5 -83t84.5 -203q0 -118 -85 -202t-201 -84zM688 462q-2 2 -3 3.5t-2.5 3.5t-2.5 3l-3 3l-3 3l-2 2q-8 6 -16 10q-10 6 -16 9q-9 5 -21 16q-14 12 -21 23q-4 6 -7 11.5t-6 10t-5.5 8t-4.5 6.5q-5 5 -14 5q-6 -1 -10.5 -2.5t-7.5 -5.5
q-7 -7 -8 -19q-6 -59 -10 -95l-13 -133q-3 2 -8 3.5t-11 3.5q-13 4 -30 6q-8 0 -17 -1t-18.5 -3t-18.5 -7t-17 -12q-17 -14 -19 -32q-1 -9 0.5 -17.5t6.5 -16.5t12 -15t16 -13q20 -12 44 -14q25 -1 42 5.5t28 16t16 21.5t5 22l6 57l10 99v3q0 2 0.5 4.5t0.5 4.5l6 56
q0 4 1.5 6t4.5 3q5 2 13 -8q5 -5 10.5 -11t11.5 -12q14 -13 32 -19q18 -5 26 -13q4 -5 6 -11t2 -14q1 -10 2 -14q1 -2 2.5 -3.5t2.5 -1.5q3 -1 8 5t7.5 15t2.5 21q-1 6 -3.5 12t-6.5 12z" />
    </font>
</defs>
</svg>
